<?xml version="1.0" encoding="UTF-8"?>
<svg width="244px" height="48px" viewBox="0 0 244 48" version="1.1" xmlns="http://www.w3.org/2000/svg" xmlns:xlink="http://www.w3.org/1999/xlink">
    <title>D3CABB05-3DC0-4697-84BB-777B96D9965A</title>
    <defs>
        <rect id="path-1" x="0" y="0" width="58.5" height="48"></rect>
    </defs>
    <g id="Page-1" stroke="none" stroke-width="1" fill="none" fill-rule="evenodd">
        <g id="landing" transform="translate(-120.000000, -4975.000000)">
            <g id="Group-22" transform="translate(0.000000, 4915.000000)">
                <g id="Group-3" transform="translate(120.000000, 60.000000)">
                    <g id="Group-6">
                        <mask id="mask-2" fill="white">
                            <use xlink:href="#path-1"></use>
                        </mask>
                        <g id="Rectangle"></g>
                        <g id="Group-7" mask="url(#mask-2)" stroke="#F92507" stroke-width="2">
                            <g transform="translate(-4.500000, -3.772078)">
                                <path d="M15.5771645,46.3271645 C16.8707972,46.6505726 18.1816678,45.8640503 18.505076,44.5704176 C18.5529543,44.3789045 18.5771645,44.1822424 18.5771645,43.9848352 L18.5771645,30.5771645 L18.5771645,30.5771645 L18.5771645,45.5771645 C18.5771645,47.2340187 19.9203102,48.5771645 21.5771645,48.5771645 C23.2340187,48.5771645 24.5771645,47.2340187 24.5771645,45.5771645 L24.5771645,30.5771645 L24.5771645,30.5771645 L24.5771645,48.5771645 C24.5771645,50.2340187 25.9203102,51.5771645 27.5771645,51.5771645 C29.2340187,51.5771645 30.5771645,50.2340187 30.5771645,48.5771645 L30.5771645,30.5771645 L30.5771645,30.5771645 L30.5771645,42.5771645 C30.5771645,44.2340187 31.9203102,45.5771645 33.5771645,45.5771645 C35.2340187,45.5771645 36.5771645,44.2340187 36.5771645,42.5771645 L36.5771645,21.5771645 L36.5771645,21.5771645 L36.5771645,33.5771645 C36.5771645,35.2340187 37.9203102,36.5771645 39.5771645,36.5771645 C41.2340187,36.5771645 42.5771645,35.2340187 42.5771645,33.5771645 L42.5771645,18.5771645 C42.5771645,10.2928932 35.8614357,3.57716447 27.5771645,3.57716447 C19.2928932,3.57716447 12.5771645,10.2928932 12.5771645,18.5771645 L12.5771645,42.4848352 C12.5771645,44.3022183 13.8140439,45.8863843 15.5771645,46.3271645 Z" id="Path" stroke-linejoin="round" transform="translate(27.577164, 27.577164) rotate(-45.000000) translate(-27.577164, -27.577164) "></path>
                                <path d="M29.1083874,37.2738636 L47.1083874,37.2738636 C55.3926586,37.2738636 62.1083874,30.5581349 62.1083874,22.2738636 C62.1083874,13.9895924 55.3926586,7.27386361 47.1083874,7.27386361 L44.1083874,7.27386361 L44.1083874,7.27386361" id="Path-2" transform="translate(45.608387, 22.273864) rotate(-45.000000) translate(-45.608387, -22.273864) "></path>
                            </g>
                        </g>
                    </g>
                    <text id="Pirmoji-Pagalba" font-family="CatamaranRoman-ExtraBold, Catamaran" font-size="24" font-weight="700" fill="#FFFFFF">
                        <tspan x="74" y="30">Pirmoji Pagalba</tspan>
                    </text>
                </g>
            </g>
        </g>
    </g>
</svg>