<?xml version="1.0" encoding="UTF-8"?>
<svg width="14px" height="14px" viewBox="0 0 14 14" version="1.1" xmlns="http://www.w3.org/2000/svg" xmlns:xlink="http://www.w3.org/1999/xlink">
    <title>2AB55DE5-9217-47E1-BBA6-E6F0922456B0</title>
    <g id="Page-1" stroke="none" stroke-width="1" fill="none" fill-rule="evenodd">
        <g id="landing" transform="translate(-762.000000, -736.000000)" fill="#FFFFFF" fill-rule="nonzero">
            <g id="Group-17" transform="translate(664.000000, 735.000000)">
                <g id="arrow-square-right" transform="translate(98.000000, 1.000000)">
                    <path d="M7.390625,3.140625 L10.9875,6.734375 C11.134375,6.88125 11.134375,7.11875 10.9875,7.265625 L7.390625,10.859375 C7.24375,11.00625 7.00625,11.00625 6.859375,10.859375 L6.64375,10.64375 C6.496875,10.496875 6.496875,10.253125 6.65,10.109375 L9.325,7.53125 L3.375,7.53125 C3.16875,7.53125 3,7.3625 3,7.15625 L3,6.84375 C3,6.6375 3.16875,6.46875 3.375,6.46875 L9.321875,6.46875 L6.646875,3.890625 C6.496875,3.74375 6.49375,3.503125 6.640625,3.35625 L6.85625,3.140625 C7.00625,2.99375 7.24375,2.99375 7.390625,3.140625 Z M1.5,0 L12.5,0 C13.328125,0 14,0.671875 14,1.5 L14,12.5 C14,13.328125 13.328125,14 12.5,14 L1.5,14 C0.671875,14 0,13.328125 0,12.5 L0,1.5 C0,0.671875 0.671875,0 1.5,0 Z M1.5,1 C1.225,1 1,1.225 1,1.5 L1,12.5 C1,12.775 1.225,13 1.5,13 L12.5,13 C12.775,13 13,12.775 13,12.5 L13,1.5 C13,1.225 12.775,1 12.5,1 L1.5,1 Z" id="Shape"></path>
                </g>
            </g>
        </g>
    </g>
</svg>