<?xml version="1.0" encoding="UTF-8"?>
<svg width="14px" height="14px" viewBox="0 0 14 14" version="1.1" xmlns="http://www.w3.org/2000/svg" xmlns:xlink="http://www.w3.org/1999/xlink">
    <title>D52B9744-7DFD-47E8-AC02-8D36E750EF25</title>
    <g id="Page-1" stroke="none" stroke-width="1" fill="none" fill-rule="evenodd">
        <g id="landing" transform="translate(-730.000000, -2326.000000)" fill="#F92507" fill-rule="nonzero">
            <g id="Group-11" transform="translate(120.000000, 2007.000000)">
                <g id="Group-22" transform="translate(610.000000, 35.000000)">
                    <g id="Group-10" transform="translate(0.000000, 282.000000)">
                        <g id="arrow-right" transform="translate(0.000000, 2.000000)">
                            <path d="M6.76450755,0.109851685 L6.54353855,0.330789432 C6.39710089,0.477227095 6.39710089,0.71466486 6.54353855,0.861133774 L12.1214823,6.4390775 L0.375000419,6.4390775 C0.167906437,6.4390775 0,6.60698394 0,6.81407792 L0,7.12657827 C0,7.33367225 0.167906437,7.50157868 0.375000419,7.50157868 L12.1214823,7.50157868 L6.54353855,13.0795224 C6.39710089,13.2259601 6.39710089,13.4633978 6.54353855,13.6098668 L6.76450755,13.8308045 C6.91094521,13.9772422 7.14838298,13.9772422 7.29482064,13.8308045 L13.8901718,7.23548464 C14.0366094,7.08904697 14.0366094,6.85160921 13.8901718,6.7051403 L7.29482064,0.109851685 C7.14838298,-0.0366172284 6.91094521,-0.0366172284 6.76450755,0.109851685 Z" id="Path"></path>
                        </g>
                    </g>
                </g>
            </g>
        </g>
    </g>
</svg>