<?xml version="1.0" encoding="UTF-8"?>
<svg width="62px" height="62px" viewBox="0 0 62 62" version="1.1" xmlns="http://www.w3.org/2000/svg" xmlns:xlink="http://www.w3.org/1999/xlink">
    <title>727811C8-F9D8-4505-B98D-24C525BA4AB1</title>
    <g id="Page-1" stroke="none" stroke-width="1" fill="none" fill-rule="evenodd">
        <g id="landing" transform="translate(-415.000000, -930.000000)" fill="#FFFFFF" fill-rule="nonzero">
            <g id="Group-9" transform="translate(120.000000, 901.000000)">
                <g id="clock" transform="translate(295.000000, 29.000000)">
                    <path d="M31,0 C13.875,0 0,13.875 0,31 C0,48.125 13.875,62 31,62 C48.125,62 62,48.125 62,31 C62,13.875 48.125,0 31,0 Z M58,31 C58,45.8375 45.9875,58 31,58 C16.1625,58 4,45.9875 4,31 C4,16.1625 16.0125,4 31,4 C45.8375,4 58,16.0125 58,31 Z M39.3875,42.0375 L29.2375,34.6625 C28.85,34.375 28.625,33.925 28.625,33.45 L28.625,13.5 C28.625,12.675 29.3,12 30.125,12 L31.875,12 C32.7,12 33.375,12.675 33.375,13.5 L33.375,31.7875 L42.1875,38.2 C42.8625,38.6875 43,39.625 42.5125,40.3 L41.4875,41.7125 C41,42.375 40.0625,42.525 39.3875,42.0375 L39.3875,42.0375 Z" id="Shape"></path>
                </g>
            </g>
        </g>
    </g>
</svg>