<?xml version="1.0" encoding="UTF-8"?>
<svg width="31px" height="31px" viewBox="0 0 31 31" version="1.1" xmlns="http://www.w3.org/2000/svg" xmlns:xlink="http://www.w3.org/1999/xlink">
    <title>2DDB0834-2C8F-495D-A08B-D7E4CCED04B6</title>
    <g id="Page-1" stroke="none" stroke-width="1" fill="none" fill-rule="evenodd">
        <g id="mokymai" transform="translate(-353.000000, -1422.000000)" fill="#002949" fill-rule="nonzero">
            <g id="Group-9" transform="translate(323.000000, 901.000000)">
                <g id="Group-4" transform="translate(0.000000, 251.000000)">
                    <g id="clock" transform="translate(30.000000, 270.000000)">
                        <path d="M15.5,0 C6.9375,0 0,6.9375 0,15.5 C0,24.0625 6.9375,31 15.5,31 C24.0625,31 31,24.0625 31,15.5 C31,6.9375 24.0625,0 15.5,0 Z M15.5,28 C8.59375,28 3,22.40625 3,15.5 C3,8.59375 8.59375,3 15.5,3 C22.40625,3 28,8.59375 28,15.5 C28,22.40625 22.40625,28 15.5,28 Z M19.3625,21.475 L14.05625,17.61875 C13.8625,17.475 13.75,17.25 13.75,17.0125 L13.75,6.75 C13.75,6.3375 14.0875,6 14.5,6 L16.5,6 C16.9125,6 17.25,6.3375 17.25,6.75 L17.25,15.60625 L21.425,18.64375 C21.7625,18.8875 21.83125,19.35625 21.5875,19.69375 L20.4125,21.3125 C20.16875,21.64375 19.7,21.71875 19.3625,21.475 Z" id="Shape"></path>
                    </g>
                </g>
            </g>
        </g>
    </g>
</svg>