<?xml version="1.0" encoding="UTF-8"?>
<svg width="123px" height="60px" viewBox="0 0 123 60" version="1.1" xmlns="http://www.w3.org/2000/svg" xmlns:xlink="http://www.w3.org/1999/xlink">
    <title>AB7FD073-FDE5-4EF1-A65E-5826B79DD4A9</title>
    <g id="Desktop-v2" stroke="none" stroke-width="1" fill="none" fill-rule="evenodd">
        <g id="landing" transform="translate(-1183.000000, -216.000000)" fill="#FFFFFF" fill-rule="nonzero">
            <g id="Group-34" transform="translate(20.000000, 20.000000)">
                <g id="Rectangle-2" transform="translate(1140.000000, 140.000000)">
                    <g id="Group-10" transform="translate(23.000000, 56.000000)">
                        <g id="113" transform="translate(47.450000, 14.600000)">
                            <path d="M6.7,35.4 L16,35.4 L16,0 L9.3,0 C9,1.03333333 8.61666667,1.90833333 8.15,2.625 C7.68333333,3.34166667 7.08333333,3.90833333 6.35,4.325 C5.61666667,4.74166667 4.73333333,5.04166667 3.7,5.225 C2.66666667,5.40833333 1.43333333,5.5 0,5.5 L0,11.3 L6.7,11.3 L6.7,35.4 Z" id="Path"></path>
                            <path d="M32.7,35.4 L42,35.4 L42,0 L35.3,0 C35,1.03333333 34.6166667,1.90833333 34.15,2.625 C33.6833333,3.34166667 33.0833333,3.90833333 32.35,4.325 C31.6166667,4.74166667 30.7333333,5.04166667 29.7,5.225 C28.6666667,5.40833333 27.4333333,5.5 26,5.5 L26,11.3 L32.7,11.3 L32.7,35.4 Z" id="Path"></path>
                            <path d="M50.9,10.7 L59.3,10.7 C59.3,8.83333333 59.4916667,7.55 59.875,6.85 C60.2583333,6.15 60.9,5.8 61.8,5.8 C62.6,5.8 63.1916667,6.05833333 63.575,6.575 C63.9583333,7.09166667 64.15,8.1 64.15,9.6 C64.15,10.6333333 64.0666667,11.475 63.9,12.125 C63.7333333,12.775 63.4833333,13.2833333 63.15,13.65 C62.8166667,14.0166667 62.4,14.2666667 61.9,14.4 C61.4,14.5333333 60.8,14.6 60.1,14.6 L58.75,14.6 L58.75,20.4 L61.1,20.4 C62.2666667,20.4 63.125,20.7 63.675,21.3 C64.225,21.9 64.5,23.0666667 64.5,24.8 C64.5,25.9 64.4666667,26.8083333 64.4,27.525 C64.3333333,28.2416667 64.2083333,28.8083333 64.025,29.225 C63.8416667,29.6416667 63.5833333,29.925 63.25,30.075 C62.9166667,30.225 62.4833333,30.3 61.95,30.3 C60.95,30.3 60.25,29.8666667 59.85,29 C59.65,28.5333333 59.4916667,27.9666667 59.375,27.3 C59.2583333,26.6333333 59.2,25.8 59.2,24.8 L50.5,24.8 C50.5,26.9333333 50.7333333,28.725 51.2,30.175 C51.6666667,31.625 52.3833333,32.7833333 53.35,33.65 C54.3166667,34.5166667 55.5416667,35.1166667 57.025,35.45 C58.5083333,35.7833333 60.25,35.95 62.25,35.95 C66.0833333,35.95 68.9666667,35.075 70.9,33.325 C72.8333333,31.575 73.8,28.7 73.8,24.7 C73.8,22.7666667 73.3833333,21.0916667 72.55,19.675 C71.7166667,18.2583333 70.2666667,17.35 68.2,16.95 L68.2,16.85 C69.1333333,16.65 69.9166667,16.3 70.55,15.8 C71.1833333,15.3 71.6916667,14.725 72.075,14.075 C72.4583333,13.425 72.7333333,12.725 72.9,11.975 C73.0666667,11.225 73.15,10.5 73.15,9.8 C73.15,8.23333333 72.975,6.84166667 72.625,5.625 C72.275,4.40833333 71.675,3.38333333 70.825,2.55 C69.975,1.71666667 68.8333333,1.08333333 67.4,0.65 C65.9666667,0.216666667 64.1666667,0 62,0 C58.3666667,0 55.6333333,0.866666667 53.8,2.6 C51.9666667,4.3 51,7 50.9,10.7 Z" id="Path"></path>
                        </g>
                        <g id="phone-alt" transform="translate(0.000000, 10.000000)">
                            <path d="M34.9666377,26.5595159 L28.0225141,23.583463 C27.4131212,23.3237535 26.7054285,23.4981492 26.2864832,24.0112706 L23.2112285,27.7685375 C18.3849023,25.4929714 14.500819,21.6088881 12.2252529,16.7825619 L15.9825198,13.7073072 C16.4967539,13.2890662 16.6713495,12.5805625 16.4103274,11.9712763 L13.4342745,5.02715266 C13.1466396,4.36770027 12.4308021,4.00587697 11.7292441,4.16533731 L5.28112932,5.6533638 C4.60594431,5.80927825 4.12790876,6.41061645 4.12790876,7.10356962 C4.12790876,23.0068527 17.0179382,35.872082 32.8964209,35.872082 C33.5896059,35.8725262 34.1912802,35.3942722 34.3472467,34.7188612 L35.8352732,28.2707464 C35.9936967,27.5658203 35.6291792,26.8477131 34.9666377,26.5595159 L34.9666377,26.5595159 Z" id="Path" transform="translate(20.000000, 19.999996) rotate(18.000000) translate(-20.000000, -19.999996) "></path>
                        </g>
                    </g>
                </g>
            </g>
        </g>
    </g>
</svg>