<?xml version="1.0" encoding="UTF-8"?>
<svg width="16px" height="16px" viewBox="0 0 16 16" version="1.1" xmlns="http://www.w3.org/2000/svg" xmlns:xlink="http://www.w3.org/1999/xlink">
    <title>3EB3BDEA-5F29-4BB7-A3E2-C397D0BC3F02</title>
    <g id="Page-1" stroke="none" stroke-width="1" fill="none" fill-rule="evenodd">
        <g id="kontaktai" transform="translate(-567.000000, -348.000000)" fill="#002949" fill-rule="nonzero">
            <g id="Group-28" transform="translate(120.000000, 307.000000)">
                <g id="Group-19" transform="translate(407.000000, 0.000000)">
                    <g id="envelope-open" transform="translate(40.000000, 41.000000)">
                        <path d="M15.4558125,5.141125 C15.3090313,5.01978125 11.9644687,2.3301875 11.2292188,1.74559375 C10.5384687,1.19346875 9.35740625,0 8,0 C6.64984375,0 5.480125,1.17865625 4.77078125,1.74559375 C4.0063125,2.35340625 0.67484375,5.0329375 0.54734375,5.13775 C0.200818426,5.42269276 -1.66547331e-16,5.84777257 -1.66547331e-16,6.29640625 L-1.66547331e-16,14.5 C-1.66547331e-16,15.3284375 0.6715625,16 1.5,16 L14.5,16 C15.3284375,16 16,15.3284375 16,14.5 L16,6.29715625 C16,5.84995852 15.800464,5.42608312 15.4558125,5.141125 Z M14.5,14.3125 C14.5,14.4160534 14.4160534,14.5 14.3125,14.5 L1.6875,14.5 C1.58394661,14.5 1.5,14.4160534 1.5,14.3125 L1.5,6.38584375 C1.5,6.3291875 1.5255,6.27565625 1.5695625,6.2400625 C2.0655,5.839625 4.96934375,3.504 5.7059375,2.91840625 C6.27359375,2.465 7.2624375,1.5 8,1.5 C8.74040625,1.5 9.74553125,2.48028125 10.2940625,2.91840625 C11.0307188,3.5040625 13.9347813,5.8400625 14.4305,6.24078125 C14.474499,6.27635414 14.5,6.32991963 14.5,6.3865 L14.5,14.3125 Z M13.5002812,8.44675 C13.6330625,8.60796875 13.6085625,8.84659375 13.44575,8.97740625 C12.5402812,9.705 11.5934375,10.4648125 11.2292187,10.754375 C10.519875,11.3213438 9.35015625,12.5 8,12.5 C6.642125,12.5 5.45978125,11.3050937 4.77078125,10.754375 C4.4183125,10.4741563 3.46628125,9.71021875 2.5543125,8.97734375 C2.3915,8.8465 2.36703125,8.60790625 2.49978125,8.4466875 L2.97659375,7.8676875 C3.10715625,7.70915625 3.340875,7.68509375 3.5009375,7.81375 C4.39525,8.53253125 5.331125,9.28359375 5.7059375,9.58159375 C6.25446875,10.0197187 7.25959375,11 8,11 C8.7375625,11 9.7264375,10.035 10.2940625,9.58159375 C10.668875,9.283625 11.6048125,8.53253125 12.4991562,7.81384375 C12.6592187,7.68521875 12.8929375,7.70928125 13.0234687,7.8678125 L13.5002812,8.44675 Z" id="Shape"></path>
                    </g>
                </g>
            </g>
        </g>
    </g>
</svg>