<?xml version="1.0" encoding="UTF-8"?>
<svg width="16px" height="16px" viewBox="0 0 16 16" version="1.1" xmlns="http://www.w3.org/2000/svg" xmlns:xlink="http://www.w3.org/1999/xlink">
    <title>06D86AE7-59EE-4853-883C-1769DE3C8D37</title>
    <g id="Desktop-v2" stroke="none" stroke-width="1" fill="none" fill-rule="evenodd">
        <g id="mokymai" transform="translate(-858.000000, -437.000000)" fill="#000000" fill-rule="nonzero">
            <g id="Group-10" transform="translate(120.000000, 130.000000)">
                <g id="Group-34" transform="translate(711.000000, 50.000000)">
                    <g id="Group-33" transform="translate(20.000000, 20.000000)">
                        <g id="Group-27" transform="translate(0.000000, 210.000000)">
                            <g id="flag-alt" transform="translate(7.000000, 27.000000)">
                                <path d="M14.765625,0 C14.546875,0 14.31875,0.046875 14.103125,0.14375 C12.525,0.853125 11.359375,1.090625 10.38125,1.090625 C8.315625,1.090625 7.115625,0.0125 4.73125,0.0125 C3.84375,0.0125 2.7875,0.165625 1.465625,0.575 C1.384375,0.246875 1.103125,0 0.75,0 C0.334375,0 0,0.334375 0,0.75 L0,15.625 C0,15.83125 0.16875,16 0.375,16 L1.125,16 C1.33125,16 1.5,15.83125 1.5,15.625 L1.5,12.440625 C2.665625,12.071875 3.675,11.925 4.578125,11.925 C7.115625,11.925 8.884375,13 11.425,13 C12.528125,13 13.771875,12.796875 15.290625,12.21875 C15.728125,12.05 16.003125,11.659375 16.003125,11.24375 L16.003125,1.04375 C16,0.40625 15.41875,0 14.765625,0 Z M14.5,10.909375 C13.396875,11.30625 12.3875,11.5 11.421875,11.5 C9.0625,11.5 7.40625,10.425 4.575,10.425 C3.578125,10.425 2.559375,10.571875 1.496875,10.86875 L1.496875,2.140625 C2.740625,1.71875 3.803125,1.5125 4.73125,1.5125 C6.803125,1.5125 8.01875,2.590625 10.38125,2.590625 C11.640625,2.590625 12.953125,2.278125 14.5,1.60625 L14.5,10.909375 Z" id="Shape"></path>
                            </g>
                        </g>
                    </g>
                </g>
            </g>
        </g>
    </g>
</svg>