<?xml version="1.0" encoding="UTF-8"?>
<svg width="31px" height="31px" viewBox="0 0 31 31" version="1.1" xmlns="http://www.w3.org/2000/svg" xmlns:xlink="http://www.w3.org/1999/xlink">
    <title>6D9DDD1C-83B2-43A5-B56E-7DE0BD1A6B34</title>
    <g id="Page-1" stroke="none" stroke-width="1" fill="none" fill-rule="evenodd">
        <g id="landing" transform="translate(-934.000000, -3348.000000)" fill="#F92507" fill-rule="nonzero">
            <g id="Group-29" transform="translate(120.000000, 3193.000000)">
                <g id="globe" transform="translate(814.000000, 155.000000)">
                    <path d="M15.5,0 C6.9375,0 0,6.9375 0,15.5 C0,24.0625 6.9375,31 15.5,31 C24.0625,31 31,24.0625 31,15.5 C31,6.9375 24.0625,0 15.5,0 Z M26.70625,10 L22.50625,10 C22.0875,7.71875 21.4125,5.7 20.55625,4.08125 C23.2375,5.26875 25.4125,7.375 26.70625,10 L26.70625,10 Z M15.5,3 C16.6625,3 18.5375,5.575 19.45,10 L11.55,10 C12.4625,5.575 14.3375,3 15.5,3 Z M3,15.5 C3,14.64375 3.0875,13.80625 3.25,13 L8.10625,13 C8.04375,13.81875 8,14.64375 8,15.5 C8,16.35625 8.04375,17.18125 8.10625,18 L3.25,18 C3.0875,17.19375 3,16.35625 3,15.5 Z M4.29375,21 L8.49375,21 C8.9125,23.28125 9.5875,25.3 10.44375,26.91875 C7.7625,25.73125 5.5875,23.625 4.29375,21 Z M8.49375,10 L4.29375,10 C5.5875,7.375 7.7625,5.26875 10.44375,4.08125 C9.5875,5.7 8.9125,7.71875 8.49375,10 L8.49375,10 Z M15.5,28 C14.3375,28 12.4625,25.425 11.55,21 L19.45625,21 C18.5375,25.425 16.6625,28 15.5,28 Z M19.88125,18 L11.11875,18 C11.05,17.2 11,16.375 11,15.5 C11,14.625 11.05,13.8 11.11875,13 L19.8875,13 C19.95625,13.8 20.00625,14.625 20.00625,15.5 C20.00625,16.375 19.95,17.2 19.88125,18 Z M20.55625,26.91875 C21.4125,25.3 22.08125,23.28125 22.50625,21 L26.70625,21 C25.4125,23.625 23.2375,25.73125 20.55625,26.91875 L20.55625,26.91875 Z M22.89375,18 C22.95625,17.18125 23,16.35625 23,15.5 C23,14.64375 22.95625,13.81875 22.89375,13 L27.75,13 C27.9125,13.80625 28,14.64375 28,15.5 C28,16.35625 27.9125,17.19375 27.75,18 L22.89375,18 Z" id="Shape"></path>
                </g>
            </g>
        </g>
    </g>
</svg>