<?xml version="1.0" encoding="UTF-8"?>
<svg width="169px" height="50px" viewBox="0 0 169 50" version="1.1" xmlns="http://www.w3.org/2000/svg" xmlns:xlink="http://www.w3.org/1999/xlink">
    <title>F293EF1E-4C57-491F-BD5E-26969A7D3E5C</title>
    <defs>
        <path d="M163.75,50 L5,50 C2.23857625,50 -1.43817996e-15,47.7614237 0,45 L0,5 C-3.38176876e-16,2.23857625 2.23857625,-3.80913106e-16 5,0 L163.75,0 C166.511424,-5.07265313e-16 168.75,2.23857625 168.75,5 L168.75,45 C168.75,47.7614237 166.511424,50 163.75,50 Z" id="path-1"></path>
        <linearGradient x1="61.0301652%" y1="4.94958549%" x2="26.4625815%" y2="71.9258683%" id="linearGradient-2">
            <stop stop-color="#00A0FF" offset="0%"></stop>
            <stop stop-color="#00A1FF" offset="0.6569999%"></stop>
            <stop stop-color="#00BEFF" offset="26.01%"></stop>
            <stop stop-color="#00D2FF" offset="51.22%"></stop>
            <stop stop-color="#00DFFF" offset="76.04%"></stop>
            <stop stop-color="#00E3FF" offset="100%"></stop>
        </linearGradient>
        <linearGradient x1="107.630451%" y1="50.0004315%" x2="-130.551706%" y2="50.0004315%" id="linearGradient-3">
            <stop stop-color="#FFE000" offset="0%"></stop>
            <stop stop-color="#FFBD00" offset="40.87%"></stop>
            <stop stop-color="#FFA500" offset="77.54%"></stop>
            <stop stop-color="#FF9C00" offset="100%"></stop>
        </linearGradient>
        <linearGradient x1="86.243474%" y1="30.90425%" x2="-50.1292379%" y2="136.019454%" id="linearGradient-4">
            <stop stop-color="#FF3A44" offset="0%"></stop>
            <stop stop-color="#C31162" offset="100%"></stop>
        </linearGradient>
        <linearGradient x1="-18.8105628%" y1="-11.8250802%" x2="42.0848536%" y2="35.086648%" id="linearGradient-5">
            <stop stop-color="#32A071" offset="0%"></stop>
            <stop stop-color="#2DA771" offset="6.85%"></stop>
            <stop stop-color="#15CF74" offset="47.62%"></stop>
            <stop stop-color="#06E775" offset="80.09%"></stop>
            <stop stop-color="#00F076" offset="100%"></stop>
        </linearGradient>
    </defs>
    <g id="Page-1" stroke="none" stroke-width="1" fill="none" fill-rule="evenodd">
        <g id="landing" transform="translate(-400.000000, -1709.000000)">
            <g id="Group-24" transform="translate(221.000000, 1387.000000)">
                <g id="Group-30" transform="translate(0.000000, 91.000000)">
                    <g id="Google_Play_Store_badge_EN" transform="translate(179.000000, 231.000000)">
                        <g id="Path" fill-rule="nonzero">
                            <use fill="#A6A6A6" xlink:href="#path-1"></use>
                            <use fill="#000000" xlink:href="#path-1"></use>
                        </g>
                        <path d="M163.5,48.75 L5.25,48.75 C3.040861,48.75 1.25,46.959139 1.25,44.75 L1.25,5.25 C1.25,3.040861 3.040861,1.25 5.25,1.25 L163.5,1.25 C165.709139,1.25 167.5,3.040861 167.5,5.25 L167.5,44.75 C167.5,46.959139 165.709139,48.75 163.5,48.75 Z" id="Path" fill="#000000" fill-rule="nonzero"></path>
                        <path d="M89.2643392,16.5399002 C88.132793,16.5399002 87.1789277,16.144015 86.4245636,15.3647132 C85.6764339,14.6072319 85.2587282,13.5629676 85.2774314,12.4968828 C85.2774314,11.3591022 85.6639651,10.3958853 86.4245636,9.63216958 C87.1758105,8.85286783 88.1296758,8.45698254 89.2612219,8.45698254 C90.3802993,8.45698254 91.3341646,8.85286783 92.1009975,9.63216958 C92.861596,10.4208229 93.2481297,11.3840399 93.2481297,12.4968828 C93.2356608,13.6377805 92.8491272,14.6009975 92.1009975,15.361596 C91.3497506,16.1471322 90.3958853,16.5399002 89.2643392,16.5399002 Z M55.5953865,16.5399002 C54.4887781,16.5399002 53.5286783,16.1502494 52.7431421,15.3802993 C51.9638404,14.6134663 51.5679551,13.644015 51.5679551,12.5 C51.5679551,11.355985 51.9638404,10.3865337 52.7431421,9.61970075 C53.5130923,8.84975062 54.473192,8.46009975 55.5953865,8.46009975 C56.144015,8.46009975 56.6770574,8.569202 57.1882793,8.79052369 C57.6901496,9.00561097 58.0985037,9.29862843 58.4008728,9.65710723 L58.4756858,9.74750623 L57.6309227,10.5766833 L57.5436409,10.4738155 C57.0667082,9.90648379 56.4276808,9.62905237 55.5829177,9.62905237 C54.8285536,9.62905237 54.1708229,9.89713217 53.6284289,10.4270574 C53.0829177,10.9600998 52.8054863,11.6583541 52.8054863,12.5031172 C52.8054863,13.3478803 53.0829177,14.0461347 53.6284289,14.5791771 C54.1708229,15.1091022 54.8285536,15.377182 55.5829177,15.377182 C56.3871571,15.377182 57.063591,15.1091022 57.590399,14.5791771 C57.9021197,14.2674564 58.0953865,13.8310474 58.1639651,13.2793017 L55.4551122,13.2793017 L55.4551122,12.1134663 L59.3266833,12.1134663 L59.3422693,12.2194514 C59.3703242,12.4158354 59.3983791,12.6184539 59.3983791,12.8054863 C59.3983791,13.8809227 59.0741895,14.7506234 58.4320449,15.3927681 C57.7026185,16.1533666 56.7487531,16.5399002 55.5953865,16.5399002 Z M100.361596,16.3746883 L99.1677057,16.3746883 L95.5112219,10.5236908 L95.542394,11.5773067 L95.542394,16.3715711 L94.3485037,16.3715711 L94.3485037,8.62531172 L95.7107232,8.62531172 L95.7481297,8.68453865 L99.186409,14.1957606 L99.1552369,13.1452618 L99.1552369,8.62531172 L100.361596,8.62531172 L100.361596,16.3746883 L100.361596,16.3746883 Z M80.2930175,16.3746883 L79.0835411,16.3746883 L79.0835411,9.79114713 L76.9856608,9.79114713 L76.9856608,8.62531172 L82.3877805,8.62531172 L82.3877805,9.79114713 L80.2899002,9.79114713 L80.2899002,16.3746883 L80.2930175,16.3746883 Z M76.0006234,16.3746883 L74.7942643,16.3746883 L74.7942643,8.62531172 L76.0006234,8.62531172 L76.0006234,16.3746883 Z M69.2206983,16.3746883 L68.0143392,16.3746883 L68.0143392,9.79114713 L65.9164589,9.79114713 L65.9164589,8.62531172 L71.3185786,8.62531172 L71.3185786,9.79114713 L69.2206983,9.79114713 L69.2206983,16.3746883 Z M65.1527431,16.3622195 L60.526808,16.3622195 L60.526808,8.62531172 L65.1527431,8.62531172 L65.1527431,9.79114713 L61.7362843,9.79114713 L61.7362843,11.9170823 L64.819202,11.9170823 L64.819202,13.0704489 L61.7362843,13.0704489 L61.7362843,15.196384 L65.1527431,15.196384 L65.1527431,16.3622195 Z M87.3098504,14.563591 C87.8491272,15.1028678 88.5037406,15.3740648 89.2643392,15.3740648 C90.0467581,15.3740648 90.6857855,15.1091022 91.2188279,14.563591 C91.7487531,14.0336658 92.0168329,13.3385287 92.0168329,12.5 C92.0168329,11.6614713 91.7487531,10.963217 91.2219451,10.436409 C90.6826683,9.89713217 90.0249377,9.62593516 89.2674564,9.62593516 C88.4850374,9.62593516 87.84601,9.89089776 87.3160848,10.436409 C86.7861596,10.9663342 86.5180798,11.6614713 86.5180798,12.5 C86.5180798,13.3385287 86.7830424,14.036783 87.3098504,14.563591 L87.3098504,14.563591 Z" id="Shape" fill="#FFFFFF" fill-rule="nonzero"></path>
                        <path d="M85.165212,27.1945137 C82.2194514,27.1945137 79.8316708,29.4295511 79.8316708,32.5124688 C79.8316708,35.5673317 82.2350374,37.8304239 85.165212,37.8304239 C88.1109726,37.8304239 90.4987531,35.5798005 90.4987531,32.5124688 C90.4987531,29.4295511 88.1109726,27.1945137 85.165212,27.1945137 Z M85.165212,35.723192 C83.553616,35.723192 82.1664589,34.3890274 82.1664589,32.5 C82.1664589,30.5829177 83.5567332,29.276808 85.165212,29.276808 C86.776808,29.276808 88.1639703,30.5829177 88.1639703,32.5 C88.1670823,34.4014963 86.776808,35.723192 85.165212,35.723192 Z M73.5286783,27.1945137 C70.5829177,27.1945137 68.1951372,29.4295511 68.1951372,32.5124688 C68.1951372,35.5673317 70.5985037,37.8304239 73.5286783,37.8304239 C76.4744389,37.8304239 78.8622195,35.5798005 78.8622195,32.5124688 C78.8622195,29.4295511 76.4713217,27.1945137 73.5286783,27.1945137 Z M73.5286783,35.723192 C71.9170823,35.723192 70.5299252,34.3890274 70.5299252,32.5 C70.5299252,30.5829177 71.9201995,29.276808 73.5286783,29.276808 C75.1402743,29.276808 76.5274314,30.5829177 76.5274314,32.5 C76.5274314,34.4014963 75.1402743,35.723192 73.5286783,35.723192 Z M59.6820449,28.8185786 L59.6820449,31.069202 L65.0841646,31.069202 C64.9189526,32.3316708 64.5012469,33.2637157 63.8622195,33.9027431 C63.0704489,34.6945137 61.8485037,35.5548628 59.6945137,35.5548628 C56.3746883,35.5548628 53.7780549,32.8740648 53.7780549,29.5542394 C53.7780549,26.234414 56.3746883,23.553616 59.6945137,23.553616 C61.4869077,23.553616 62.7930175,24.2612219 63.7624688,25.165212 L65.3584788,23.569202 C64.0118454,22.2786783 62.2194514,21.2905237 59.7069825,21.2905237 C55.1527431,21.2905237 51.3310474,25 51.3310474,29.5417706 C51.3310474,34.09601 55.1496259,37.7930175 59.7069825,37.7930175 C62.1664589,37.7930175 64.0118454,36.9887781 65.4706983,35.4738155 C66.957606,33.9869077 67.4283042,31.8890274 67.4283042,30.196384 C67.4283042,29.6695761 67.3877805,29.1957606 67.303616,28.7936409 L59.6789277,28.7936409 C59.6820449,28.7905237 59.6820449,28.8185786 59.6820449,28.8185786 Z M116.318579,30.5704489 C115.872818,29.3765586 114.526185,27.1820449 111.764339,27.1820449 C109.027431,27.1820449 106.75187,29.3360349 106.75187,32.5 C106.75187,35.4862843 109.002494,37.8179551 112.029302,37.8179551 C114.460723,37.8179551 115.875935,36.3310474 116.458853,35.4582294 L114.65399,34.2487531 C114.055486,35.1371571 113.223192,35.7200748 112.041771,35.7200748 C110.84788,35.7200748 110.012469,35.1776808 109.457606,34.1084788 L116.567955,31.1627182 C116.567955,31.1658354 116.318579,30.5704489 116.318579,30.5704489 Z M109.067955,32.3472569 C109.011845,30.2930175 110.663965,29.2487531 111.845387,29.2487531 C112.777431,29.2487531 113.553616,29.7069825 113.818579,30.3740648 L109.067955,32.3472569 Z M103.291771,37.5 L105.626559,37.5 L105.626559,21.8765586 L103.291771,21.8765586 L103.291771,37.5 Z M99.457606,28.3759352 L99.3734414,28.3759352 C98.8466334,27.7493766 97.84601,27.1820449 96.5679551,27.1820449 C93.915212,27.1820449 91.4713217,29.5168329 91.4713217,32.515586 C91.4713217,35.5018703 93.9027431,37.8086035 96.5679551,37.8086035 C97.8304239,37.8086035 98.8466334,37.2381546 99.3734414,36.5991272 L99.457606,36.5991272 L99.457606,37.3628429 C99.457606,39.3921446 98.372818,40.4862843 96.6240648,40.4862843 C95.1932668,40.4862843 94.3048628,39.457606 93.9432668,38.5972569 L91.9139651,39.4451372 C92.4968828,40.8478803 94.0523691,42.5841646 96.6209476,42.5841646 C99.3578554,42.5841646 101.677057,40.9725686 101.677057,37.0417706 L101.677057,27.5 L99.4700748,27.5 L99.4700748,28.3759352 C99.473192,28.3759352 99.457606,28.3759352 99.457606,28.3759352 Z M96.776808,35.723192 C95.165212,35.723192 93.8185786,34.3765586 93.8185786,32.515586 C93.8185786,30.6390274 95.165212,29.2799252 96.776808,29.2799252 C98.372818,29.2799252 99.6103491,30.6546135 99.6103491,32.515586 C99.6259352,34.3765586 98.3759352,35.723192 96.776808,35.723192 Z M127.250623,21.8765586 L121.667706,21.8765586 L121.667706,37.5 L124.002494,37.5 L124.002494,31.5835411 L127.253741,31.5835411 C129.837905,31.5835411 132.378429,29.7100998 132.378429,26.7362843 C132.378429,23.7624688 129.847257,21.8765586 127.250623,21.8765586 Z M127.319202,29.4014963 L123.999377,29.4014963 L123.999377,24.0399002 L127.319202,24.0399002 C129.067955,24.0399002 130.05611,25.4831671 130.05611,26.7206983 C130.05611,27.9457606 129.055486,29.4014963 127.319202,29.4014963 Z M141.736284,27.1664589 C140.040524,27.1664589 138.291771,27.9177057 137.568579,29.5542394 L139.638404,30.4145885 C140.084165,29.5542394 140.900873,29.2612219 141.764339,29.2612219 C142.973815,29.2612219 144.195761,29.984414 144.223815,31.2749377 L144.223815,31.4401496 C143.80611,31.2032419 142.889651,30.8416459 141.792394,30.8416459 C139.557357,30.8416459 137.291147,32.063591 137.291147,34.3547382 C137.291147,36.4526185 139.124065,37.7992519 141.165835,37.7992519 C142.733791,37.7992519 143.597257,37.0916459 144.136534,36.2718204 L144.220698,36.2718204 L144.220698,37.4812968 L146.471322,37.4812968 L146.471322,31.4962594 C146.471322,28.7094763 144.401496,27.1664589 141.736284,27.1664589 Z M141.443267,35.723192 C140.679551,35.723192 139.610349,35.3491272 139.610349,34.3890274 C139.610349,33.1795511 140.944514,32.7213217 142.082294,32.7213217 C143.110973,32.7213217 143.597257,32.9426434 144.208229,33.2481297 C144.0399,34.6508728 142.855362,35.7107232 141.443267,35.723192 Z M154.682045,27.5 L152.001247,34.276808 L151.917082,34.276808 L149.139651,27.5 L146.627182,27.5 L150.794888,36.973192 L148.419576,42.2381546 L150.850998,42.2381546 L157.263092,27.5 C157.263092,27.5 154.682045,27.5 154.682045,27.5 Z M133.665835,37.5 L136.000623,37.5 L136.000623,21.8765586 L133.665835,21.8765586 L133.665835,37.5 Z" id="Shape" fill="#FFFFFF"></path>
                        <path d="M13.042394,9.41708229 C12.680798,9.80673317 12.4719451,10.4021197 12.4719451,11.1814214 L12.4719451,38.8216958 C12.4719451,39.6009975 12.680798,40.196384 13.0548628,40.5704489 L13.1514963,40.6546135 L28.6377805,25.1683292 L28.6377805,24.8223192 L13.1390274,9.33291771 C13.1390274,9.33291771 13.042394,9.41708229 13.042394,9.41708229 Z" id="Path" fill="url(#linearGradient-2)"></path>
                        <path d="M33.7905237,30.34601 L28.6253117,25.180798 L28.6253117,24.819202 L33.7905237,19.65399 L33.9027431,19.7225686 L40.0124688,23.1951372 C41.7612219,24.1801746 41.7612219,25.8073566 40.0124688,26.8048628 L33.9027431,30.2774314 C33.9027431,30.2774314 33.7905237,30.34601 33.7905237,30.34601 Z" id="Path" fill="url(#linearGradient-3)"></path>
                        <path d="M33.9027431,30.2774314 L28.6253117,25 L13.042394,40.5829177 C13.6128429,41.1938903 14.5698254,41.2624688 15.6390274,40.6670823 L33.9027431,30.2774314" id="Path" fill="url(#linearGradient-4)"></path>
                        <path d="M33.9027431,19.7225686 L15.6390274,9.34850374 C14.5698254,8.73753117 13.6097257,8.82169576 13.042394,9.43266833 L28.6253117,25 L33.9027431,19.7225686 Z" id="Path" fill="url(#linearGradient-5)"></path>
                        <path d="M33.7905237,30.165212 L15.6514963,40.4706983 C14.638404,41.053616 13.734414,41.0130923 13.1514963,40.4831671 L13.0548628,40.5798005 L13.1514963,40.6639651 C13.734414,41.1907731 14.638404,41.234414 15.6514963,40.6514963 L33.915212,30.2774314 C33.915212,30.2774314 33.7905237,30.165212 33.7905237,30.165212 Z" id="Path" fill="#000000" fill-rule="nonzero" opacity="0.2"></path>
                        <path d="M40.0124688,26.6240648 L33.7749377,30.165212 L33.8871571,30.2774314 L39.9968828,26.8048628 C40.872818,26.3061097 41.3029925,25.6514963 41.3029925,25 C41.25,25.5985037 40.8042394,26.1658354 40.0124688,26.6240648 Z" id="Path" fill="#000000" fill-rule="nonzero" opacity="0.12"></path>
                        <path d="M15.6390274,9.52930175 L40.0124688,23.3759352 C40.8042394,23.8216958 41.25,24.4046135 41.3185786,25 C41.3185786,24.3485037 40.888404,23.6938903 40.0124688,23.1951372 L15.6390274,9.34850374 C13.8902743,8.3478803 12.4719451,9.18329177 12.4719451,11.1814214 L12.4719451,11.3622195 C12.4719451,9.36097257 13.8902743,8.54114713 15.6390274,9.52930175 Z" id="Path" fill="#FFFFFF" opacity="0.25"></path>
                    </g>
                </g>
            </g>
        </g>
    </g>
</svg>