<?xml version="1.0" encoding="UTF-8"?>
<svg width="40px" height="33px" viewBox="0 0 40 33" version="1.1" xmlns="http://www.w3.org/2000/svg" xmlns:xlink="http://www.w3.org/1999/xlink">
    <title>3AAC992E-3230-4DAC-AB68-415CE5CC283C</title>
    <g id="Page-1" stroke="none" stroke-width="1" fill="none" fill-rule="evenodd">
        <g id="landing" transform="translate(-527.000000, -3347.000000)" fill="#F92507" fill-rule="nonzero">
            <g id="Group-29" transform="translate(120.000000, 3193.000000)">
                <g id="hands-helping" transform="translate(407.000000, 154.000000)">
                    <path d="M39.8707885,12.750672 L39.3707922,11.8819285 C39.0957943,11.4006821 38.4832989,11.2381833 38.0020525,11.5131813 L31.9583478,15.0381548 C31.7270996,13.3256677 30.2771104,12.0006776 28.5021237,12.0006776 L19.002195,12.0006776 L19.002195,16.0006476 C19.002195,17.1006394 18.1084517,18.0006326 17.00221,18.0006326 C15.8959683,18.0006326 15.002225,17.1006394 15.002225,16.0006476 L15.002225,10.6069381 C15.002225,9.91944322 15.3584723,9.27569805 15.939718,8.91320077 L18.0272023,7.60696057 C18.6646975,7.20696357 19.395942,7.00071511 20.1459364,7.00071511 L26.7271371,7.00071511 L34.2145809,2.73824709 C34.6958273,2.46324915 34.864576,1.8570037 34.5895781,1.37575731 L34.0958318,0.507013821 C33.8208339,0.0257674309 33.2145884,-0.142981303 32.733342,0.132016634 L25.939643,4.00698757 L20.1459364,4.00698757 C18.8334463,4.00698757 17.5522059,4.3757348 16.4397142,5.0694796 L14.3459799,6.3757198 C13.2022385,7.08821446 12.4334943,8.21320602 12.1459964,9.48819646 L8.43352427,11.7131798 C6.92728557,12.619423 6.00229251,14.2506607 6.00229251,16.0131475 L6.00229251,18.1443815 L0.502333761,21.3193577 C0.0210873708,21.5943557 -0.14141141,22.2068511 0.133586527,22.6880974 L0.633582777,23.5568409 C0.908580714,24.0380873 1.52107612,24.2005861 2.00232251,23.9255882 L9.00227001,19.8818685 L9.00227001,16.0193975 C9.00227001,15.3131528 9.37101724,14.6569077 9.97726269,14.2944104 L12.0022475,13.0694196 L12.0022475,15.7068998 C12.0022475,18.3193802 13.8772334,20.7131123 16.4834639,20.9756103 C19.4771914,21.281858 22.0021725,18.9318756 22.0021725,16.0006476 L22.0021725,15.0006551 L28.5021237,15.0006551 C28.7771217,15.0006551 29.00212,15.2256534 29.00212,15.5006514 L29.00212,17.5006364 C29.00212,17.7756343 28.7771217,18.0006326 28.5021237,18.0006326 L26.5021387,18.0006326 L26.5021387,21.7506045 C26.5021387,22.7130973 25.7208946,23.4880914 24.7646518,23.4880914 L23.2584131,23.4880914 L23.2584131,24.9880802 C23.2584131,26.1005719 22.3584198,27.0005651 21.2459282,27.0005651 L13.2084885,27.0005651 L9.2835179,29.2692981 C8.80227151,29.544296 8.63977273,30.1567914 8.91477066,30.6380378 L9.41476691,31.5067813 C9.68976485,31.9880277 10.3022603,32.1505265 10.7835066,31.8755285 L14.0084825,30.0067926 L21.2459282,30.0067926 C23.5521609,30.0067926 25.5021462,28.4380543 26.0833919,26.3068203 C28.0521271,25.7318246 29.5021162,23.9068383 29.5021162,21.7568544 L29.5021162,20.8631111 C30.602108,20.5318636 31.4708515,19.67562 31.8208489,18.5881282 L39.5020412,14.1194117 C39.9832876,13.8381638 40.1457864,13.2319184 39.8707885,12.750672 Z" id="Path"></path>
                </g>
            </g>
        </g>
    </g>
</svg>