<?xml version="1.0" encoding="UTF-8"?>
<svg width="702px" height="487px" viewBox="0 0 702 487" version="1.1" xmlns="http://www.w3.org/2000/svg" xmlns:xlink="http://www.w3.org/1999/xlink">
    <title>34D8334A-56E9-4162-93F9-FFB11D7BD809</title>
    <defs>
        <linearGradient x1="50%" y1="0%" x2="50%" y2="100%" id="linearGradient-1">
            <stop stop-color="#F92507" stop-opacity="0" offset="0%"></stop>
            <stop stop-color="#F92507" offset="100%"></stop>
        </linearGradient>
    </defs>
    <g id="Page-1" stroke="none" stroke-width="1" fill="none" fill-rule="evenodd">
        <g id="landing" transform="translate(-369.000000, -120.000000)">
            <g id="Group-21" transform="translate(369.000000, 120.000000)">
                <g id="Group" transform="translate(1.000000, 0.000000)">
                    <path d="M220.859483,340.448319 C279.922157,327.506193 243.93314,382.848172 243.93314,382.848172 C243.93314,382.848172 311.744353,313.065081 348.518552,318.454288 C388.776998,324.352079 358.266414,376.09828 358.266414,376.09828 C358.266414,376.09828 385.587195,338.338142 430.052613,344.842664 C481.682821,352.395584 379.75,484.166667 379.75,484.166667 L67.6666667,484.166667 C67.6666667,484.166667 139.731397,358.230918 220.859483,340.448319 Z" id="Fill-134" fill="#2F2F3B"></path>
                    <path d="M314.416667,484.166667 C314.416667,484.166667 381.161621,352.09668 447.661222,346.55579 C510.074305,341.349495 471.738664,425.622772 475.709188,421.24181 C479.679713,416.86531 514.61141,351.489948 571.135625,351.489948 C627.65984,351.489948 553.78577,439.720366 553.78577,439.720366 C553.78577,439.720366 674.217591,398.239533 683.648703,441.799315 C691.47376,477.953398 645.166667,484.166667 645.166667,484.166667 L314.416667,484.166667 Z" id="Fill-135" fill="#272733"></path>
                    <path d="M72.1930833,354.720054 C86.5931055,396.164333 93.1516651,439.891786 91.2475672,484.166667 L93.0706397,484.166667 C94.7586698,440.773011 88.3036427,397.147923 73.930629,355.752601 C70.5905801,346.130336 67.2415283,334.865788 57.4194438,329.02656 C57.2303845,328.915294 57.0638322,329.182332 57.2438887,329.298048 C66.0801636,335.09277 69.0691023,345.720878 72.1930833,354.720054" id="Fill-136" fill="#FFC063"></path>
                    <path d="M84.4708184,484.166667 C67.0361987,442.515971 42.9230668,402.017116 11.2971663,364.132396 C10.9804166,363.754448 10.2621531,364.267377 10.5789028,364.649824 C40.4470653,401.022754 64.573581,441.184157 82.2357251,484.166667 L84.4708184,484.166667" id="Fill-137" fill="#FFC063"></path>
                    <path d="M75.917477,330.470749 C75.038608,331.175628 71.9692584,332.817374 70.4033547,335.587818 C68.6366942,338.144123 68.3779409,341.829127 68.4939337,341.726518 C68.6545392,341.838049 66.3480657,338.7687 66.4952875,334.829404 C66.3168369,330.974871 68.5920815,326.250393 70.5684215,324.987855 C74.2311192,321.936351 78.8663725,322.681382 79.2232736,324.693412 C79.6426324,326.705442 77.7555178,328.833465 75.917477,330.470749" id="Fill-138" fill="#FFC063"></path>
                    <path d="M60.8651723,359.497917 C61.958182,359.123171 64.9963027,357.432351 68.3734796,357.503732 C71.6480474,357.307436 75.2616712,358.877801 75.1099882,358.922414 C75.1412171,359.109787 73.3477889,355.759377 69.546792,353.974872 C65.9822421,351.971764 60.4101234,351.530099 58.2597941,352.516039 C53.5977732,354.006101 52.0675597,358.123847 53.7985301,359.381924 C55.4982717,360.693535 58.4248609,360.193874 60.8651723,359.497917" id="Fill-139" fill="#FFC063"></path>
                    <path d="M65.710105,375.56739 C66.7986534,375.192643 69.8367742,373.501824 73.2184123,373.573205 C76.4929801,373.376909 80.1066039,374.947274 79.9549209,374.991887 C79.9816885,375.17926 78.1882604,371.82885 74.3917247,370.039884 C70.8227135,368.036776 65.2505948,367.599572 63.1002656,368.585511 C58.4427059,370.075574 56.9124924,374.188859 58.6390016,375.451397 C60.3432044,376.763008 63.2697936,376.263347 65.710105,375.56739" id="Fill-140" fill="#FFC063"></path>
                    <path d="M24.7601628,402.236918 C25.8487112,401.862172 28.886832,400.171353 32.2684701,400.242733 C35.5430379,400.046437 39.1566617,401.616802 39.0005175,401.661415 C39.0317463,401.848788 37.2383182,398.498379 33.4373213,396.709412 C29.8727713,394.706304 24.3006526,394.269101 22.1503234,395.25504 C17.4927638,396.745102 15.9625502,400.858387 17.6890594,402.120925 C19.3932622,403.432537 22.3198514,402.932875 24.7601628,402.236918" id="Fill-141" fill="#FFC063"></path>
                    <path d="M12.4203066,385.074435 C13.508855,384.699689 16.5469758,383.004409 19.9286139,383.075789 C23.2031817,382.883955 26.8168055,384.45432 26.6606613,384.498932 C26.6918901,384.686305 24.898462,381.335896 21.1019263,379.546929 C17.5329151,377.543822 11.9607964,377.102157 9.81046715,378.092557 C5.15290755,379.582619 3.622694,383.695905 5.34920316,384.958443 C7.05340601,386.265593 9.97999519,385.770393 12.4203066,385.074435" id="Fill-142" fill="#FFC063"></path>
                    <path d="M83.7693016,348.077081 C82.7833623,348.6392 79.4686431,349.816974 77.4521518,352.319743 C75.275055,354.590526 74.3872635,358.190766 74.5211014,358.106002 C74.6594006,358.244302 72.9061238,354.871586 73.7225351,351.00367 C74.2043516,347.171444 77.2558562,342.839557 79.4240305,341.880385 C83.5596222,339.399922 88.0075024,340.814143 88.0208862,342.852941 C88.0922664,344.8962 85.8660957,346.725318 83.7693016,348.077081" id="Fill-143" fill="#FFC063"></path>
                    <path d="M92.2457032,367.037453 C90.992088,367.305129 86.8743414,367.327435 84.1797379,369.504532 C81.3156064,371.320266 79.8656956,375.290791 80.0352237,375.241717 C80.1913679,375.469242 78.4336299,370.673383 79.821083,366.350418 C80.8114836,361.938228 84.9470753,357.994471 87.6595238,357.749101 C92.9059703,356.495486 98.1211879,360.064497 97.920431,362.527115 C97.7865931,365.020962 94.9135391,366.287961 92.2457032,367.037453" id="Fill-144" fill="#FFC063"></path>
                    <path d="M99.0580533,394.264547 C97.7732093,394.331466 93.7134591,393.715812 90.6574932,395.442321 C87.5033796,396.789622 85.3530503,400.474626 85.5270396,400.456781 C85.6385712,400.702151 84.7775473,395.701074 86.9367991,391.659169 C88.7123821,387.456658 93.5082409,384.21778 96.2251507,384.39177 C101.627741,383.976872 106.115773,388.304298 105.473351,390.699997 C104.888925,393.135847 101.824037,393.938875 99.0580533,394.264547" id="Fill-145" fill="#FFC063"></path>
                    <path d="M53.6468472,401.966965 C52.6430628,402.248025 49.2971148,402.484472 47.2360108,404.393893 C45.0187626,406.026716 44.0818971,409.328051 44.2201963,409.283438 C44.3584955,409.457428 42.6319864,405.647508 43.4974716,402.060652 C44.028362,398.415799 47.1512468,394.99401 49.3417274,394.650492 C53.5353156,393.352265 57.9965795,395.98441 57.9831958,397.99644 C58.0278084,400.030777 55.7704088,401.213012 53.6468472,401.966965" id="Fill-146" fill="#FFC063"></path>
                    <path d="M51.7240424,331.61957 C52.3530806,331.356356 54.0706672,330.232117 56.0693135,330.138431 C58.0010408,329.8886 60.2138277,330.673782 60.1246025,330.705011 C60.1513701,330.812081 58.9289837,328.902661 56.6002039,328.001485 C54.3918782,326.962011 51.0771591,326.926321 49.8503115,327.59551 C47.1646306,328.666214 46.4552896,331.16006 47.5349155,331.838172 C48.6056188,332.543052 50.3142829,332.132616 51.7240424,331.61957" id="Fill-147" fill="#FFC063"></path>
                    <path d="M59.5847895,322.714887 C59.3840326,323.326081 58.4070158,325.048128 58.5676213,326.895092 C58.5586988,328.692981 59.6918599,330.620247 59.7141662,330.535483 C59.8346203,330.544406 57.6262946,329.67892 56.3503731,327.662429 C54.9406137,325.779776 54.4632585,322.741655 55.0209165,321.532652 C55.8150215,318.927274 58.393632,317.945796 59.2635785,318.851433 C60.1602926,319.734763 59.9461519,321.354202 59.5847895,322.714887" id="Fill-148" fill="#FFC063"></path>
                    <path d="M4.67109103,367.619694 C5.30012926,367.352018 7.0177159,366.22778 9.02082343,366.134093 C10.9480895,365.888724 13.1608764,366.669445 13.0716511,366.700674 C13.0984187,366.812205 11.8760324,364.902784 9.54725258,363.997148 C7.3389269,362.957673 4.02420776,362.921983 2.80182142,363.595634 C0.111679234,364.666337 -0.597661741,367.160184 0.486425409,367.838296 C1.5526675,368.543176 3.26133161,368.128278 4.67109103,367.619694" id="Fill-149" fill="#FFC063"></path>
                    <path d="M13.5713127,358.880078 C13.3170207,359.473426 12.1927821,361.115171 12.1883209,362.966596 C12.0232541,364.760024 12.9779646,366.763131 13.0091934,366.678367 C13.1296476,366.700674 11.0060859,365.670122 9.90861496,363.564405 C8.67284484,361.579142 8.46762669,358.518715 9.13235503,357.354325 C10.1495232,354.820328 12.8084366,354.035145 13.593619,354.998778 C14.4100303,355.953489 14.0531292,357.550621 13.5713127,358.880078" id="Fill-150" fill="#FFC063"></path>
                    <path d="M224.294656,458.957336 C219.82447,466.902847 216.041318,475.071422 212.142173,483.257841 C211.620205,484.34639 209.617098,483.57013 210.054301,482.445891 C210.487044,481.321653 224.522181,453.398601 233.569624,440.005887 C260.694109,399.876817 288.782227,380.216027 285.989476,382.781253 C261.541749,405.225873 240.230291,430.668461 224.294656,458.957336 Z" id="Fill-151" fill="#FFC063"></path>
                    <path d="M255.652881,394.964965 C256.375606,395.727842 259.00329,397.632801 260.069532,400.407708 C261.354376,403.008624 261.073317,406.479488 260.975169,406.372417 C260.810102,406.457181 263.397635,403.87411 263.825916,400.180183 C264.539719,396.602249 263.089808,391.913461 261.430218,390.494779 C258.445632,387.202366 254.011136,387.336204 253.39102,389.165322 C252.712908,390.989979 254.171741,393.207227 255.652881,394.964965" id="Fill-152" fill="#FFC063"></path>
                    <path d="M272.248783,378.538591 C272.971508,379.301468 275.603653,381.206427 276.669895,383.981333 C277.950278,386.586712 277.669219,390.057575 277.575532,389.946043 C277.406004,390.030807 279.997998,387.447736 280.42628,383.753809 C281.140082,380.175875 279.690171,375.491548 278.02612,374.072866 C275.041534,370.775992 270.611499,370.90983 269.986922,372.738948 C269.313271,374.568066 270.767643,376.780853 272.248783,378.538591" id="Fill-153" fill="#FFC063"></path>
                    <path d="M290.191987,392.868171 C289.25066,392.346203 286.761275,390.280638 283.620545,389.79436 C280.627037,389.080558 276.977723,389.941582 277.111561,390.008501 C277.049103,390.178029 279.351115,387.367433 283.210108,386.336881 C286.895112,385.060959 292.141559,385.565082 293.939448,386.832081 C297.96797,388.973488 298.601469,393.033238 296.758967,393.916568 C294.929849,394.853434 292.32001,393.912107 290.191987,392.868171" id="Fill-154" fill="#FFC063"></path>
                    <path d="M272.578916,410.690921 C271.642051,410.168953 269.152666,408.103388 266.011936,407.61711 C263.018428,406.903308 259.369114,407.764332 259.502952,407.831251 C259.440494,408.000779 261.742506,405.190183 265.601499,404.159631 C269.286504,402.883709 274.528489,403.387832 276.330839,404.654831 C280.359361,406.796238 280.99286,410.855988 279.150358,411.743779 C277.32124,412.676184 274.706939,411.734857 272.578916,410.690921" id="Fill-155" fill="#FFC063"></path>
                    <path d="M259.699247,425.917215 C258.762382,425.390786 256.272996,423.329682 253.132267,422.843404 C250.134297,422.129602 246.489445,422.990626 246.623282,423.057545 C246.560825,423.222612 248.858376,420.416477 252.717369,419.381463 C256.406834,418.110003 261.64882,418.614126 263.45117,419.881125 C267.479692,422.022532 268.10873,426.082282 266.266228,426.965612 C264.441571,427.898016 261.82727,426.961151 259.699247,425.917215" id="Fill-156" fill="#FFC063"></path>
                    <path d="M248.97883,441.139048 C248.041964,440.61708 245.552579,438.555976 242.411849,438.065237 C239.418341,437.351435 235.769027,438.212459 235.902865,438.279378 C235.840407,438.448906 238.14242,435.638309 242.001413,434.607757 C245.686417,433.336297 250.928402,433.835959 252.730753,435.102958 C256.759274,437.244364 257.392774,441.304115 255.550272,442.191906 C253.721153,443.12431 251.106853,442.182984 248.97883,441.139048" id="Fill-157" fill="#FFC063"></path>
                    <path d="M241.907726,411.583174 C242.630451,412.350511 245.262597,414.255471 246.328839,417.030377 C247.609222,419.631294 247.328162,423.102157 247.234476,422.995087 C247.064948,423.079851 249.656942,420.496779 250.085223,416.802853 C250.794564,413.224919 249.349115,408.540592 247.685063,407.12191 C244.700478,403.825036 240.265981,403.958874 239.645866,405.787992 C238.967753,407.61711 240.426587,409.829897 241.907726,411.583174" id="Fill-158" fill="#FFC063"></path>
                    <path d="M229.719553,428.312914 C230.442278,429.07579 233.069962,430.98075 234.136205,433.755656 C235.421049,436.361034 235.139989,439.827436 235.046302,439.720366 C234.876774,439.80513 237.468769,437.222058 237.892589,433.528131 C238.606391,429.950198 237.15648,425.26587 235.49689,423.847189 C232.512304,420.550314 228.077808,420.684152 227.457692,422.513271 C226.77958,424.342389 228.238414,426.555176 229.719553,428.312914" id="Fill-159" fill="#FFC063"></path>
                    <path d="M274.399112,455.504318 C272.984891,456.316268 269.402496,459.095635 267.564456,460.817683 C262.53215,465.537701 257.972738,472.265287 255.483353,479.853897 C255.322747,480.335713 255.273673,480.777378 254.791857,481.058438 C254.675864,481.125357 254.497413,481.085206 254.430494,480.973674 C254.140512,480.46509 254.381421,479.996657 254.546487,479.465767 C255.715338,475.655847 258.11996,470.873372 261.738045,466.224735 C267.86336,458.355066 272.409388,456.53487 274.367883,455.459705 C274.399112,455.44186 274.430341,455.486473 274.399112,455.504318" id="Fill-160" fill="#FFC063"></path>
                    <path d="M279.382344,460.197568 C278.579316,459.858511 276.393297,458.426446 273.841454,458.305992 C271.378836,457.989242 268.559317,458.988565 268.670849,459.028716 C268.63962,459.167016 270.19214,456.735627 273.167803,455.580159 C275.9784,454.255164 280.207678,454.210551 281.76912,455.067114 C285.195371,456.432261 286.101008,459.613142 284.722477,460.474166 C283.35733,461.375341 281.180233,460.848912 279.382344,460.197568" id="Fill-161" fill="#FFC063"></path>
                    <path d="M269.362345,448.843651 C269.616637,449.619911 270.865791,451.819314 270.656112,454.1704 C270.669495,456.467951 269.224046,458.921646 269.197278,458.810114 C269.041134,458.823498 271.856192,457.721566 273.484553,455.147417 C275.282442,452.747257 275.889174,448.879341 275.179833,447.331282 C274.167126,444.012102 270.879175,442.762948 269.76832,443.913954 C268.626236,445.042654 268.902835,447.108219 269.362345,448.843651" id="Fill-162" fill="#FFC063"></path>
                    <path d="M689.24759,380.72015 C660.057539,401.308883 638.661317,430.115264 618.161809,458.007087 C604.336352,476.811315 606.696361,478.63151 603.604705,482.008687 C603.105043,482.557423 602.114642,482.289747 602.087875,481.571483 C601.958498,478.082775 604.733404,474.107789 606.500065,471.065207 C608.552246,467.522963 610.867642,464.110096 613.299031,460.777532 C618.491943,453.643971 624.064061,446.720089 629.5648,439.782824 C640.75365,425.676307 652.393088,411.779469 665.687654,399.328082 C672.97736,392.502348 680.757804,386.15843 689.086984,380.501548 C689.243128,380.398939 689.399272,380.613079 689.24759,380.72015" id="Fill-163" fill="#FFC063"></path>
                    <path d="M655.962099,387.666338 C656.863274,388.719196 660.222606,391.355803 661.413763,395.1568 C662.908287,398.725811 662.234636,403.459212 662.118643,403.307529 C661.886657,403.423522 665.576123,399.930352 666.463914,394.889124 C667.726452,390.017424 666.187316,383.602126 664.081599,381.643631 C660.369828,377.106526 654.418502,377.231441 653.428101,379.725288 C652.36632,382.210212 654.128519,385.252794 655.962099,387.666338" id="Fill-164" fill="#FFC063"></path>
                    <path d="M633.981451,412.015916 C634.882626,413.068775 638.24642,415.705382 639.433116,419.506379 C640.927639,423.07539 640.253988,427.808791 640.137995,427.657108 C639.90601,427.777562 643.595475,424.279931 644.483267,419.243164 C645.745804,414.367003 644.206668,407.951705 642.100952,405.99321 C638.38918,401.456105 632.437854,401.58102 631.447453,404.074867 C630.385672,406.559791 632.147872,409.602373 633.981451,412.015916" id="Fill-165" fill="#FFC063"></path>
                    <path d="M612.986743,438.988719 C613.887918,440.041577 617.251711,442.678184 618.438407,446.479181 C619.932931,450.048192 619.25928,454.781593 619.143287,454.62991 C618.911301,454.745903 622.600767,451.252733 623.488558,446.211505 C624.751096,441.339805 623.21196,434.924507 621.106243,432.966012 C617.394472,428.428907 611.443145,428.553822 610.452745,431.047669 C609.390964,433.532593 611.153163,436.575175 612.986743,438.988719" id="Fill-166" fill="#FFC063"></path>
                    <path d="M678.179194,406.443798 C677.03711,405.801376 674.048063,403.24061 670.175686,402.682952 C666.495143,401.835312 661.935731,402.990779 662.096337,403.071082 C662.011573,403.285223 664.991697,399.698367 669.823246,398.324297 C674.449577,396.651323 680.922871,397.195597 683.099968,398.75704 C687.998436,401.389186 688.596245,406.501794 686.271926,407.6528 C683.965453,408.861803 680.766727,407.72418 678.179194,406.443798" id="Fill-167" fill="#FFC063"></path>
                    <path d="M655.252758,431.667784 C654.110674,431.020901 651.121627,428.464597 647.24925,427.906939 C643.568707,427.059299 639.009296,428.210305 639.169901,428.290607 C639.085137,428.504748 642.065262,424.917892 646.89681,423.548284 C651.523141,421.87531 657.996435,422.415123 660.173532,423.981026 C665.072,426.613172 665.669809,431.721319 663.345491,432.872326 C661.039017,434.085789 657.840291,432.943706 655.252758,431.667784" id="Fill-168" fill="#FFC063"></path>
                    <path d="M694.159441,384.770977 C693.34303,384.512224 691.08563,383.294299 688.551632,383.428137 C686.097937,383.356757 683.367644,384.641601 683.479175,384.672829 C683.456869,384.81559 684.839861,382.219134 687.712915,380.764762 C690.411979,379.149785 694.601106,378.676891 696.198239,379.38177 C699.678025,380.407861 700.775496,383.50844 699.463884,384.512224 C698.170117,385.551698 695.979637,385.243871 694.159441,384.770977" id="Fill-169" fill="#FFC063"></path>
                    <path d="M683.519327,374.385155 C683.822692,375.139108 685.196762,377.218057 685.138765,379.600372 C685.29491,381.902384 684.018988,384.507763 683.983298,384.405154 C683.831615,384.431921 686.552986,383.040007 688.002897,380.296329 C689.626797,377.708796 689.988159,373.760578 689.185132,372.283899 C687.976129,369.053944 684.639104,368.130463 683.613013,369.393 C682.551232,370.646615 682.957207,372.689874 683.519327,374.385155" id="Fill-170" fill="#FFC063"></path>
                    <path d="M12.3329378,484.166667 L693.583333,484.166667 C693.905499,484.166667 694.166667,484.427834 694.166667,484.75 C694.166667,485.072166 693.905499,485.333333 693.583333,485.333333 L12.25,485.333333 C11.9278339,485.333333 11.6666667,485.072166 11.6666667,484.75 C11.6666667,484.427834 11.9278339,484.166667 12.25,484.166667" id="Fill-171" fill="#000000"></path>
                    <path d="M493.558706,237.174519 C500.344288,235.180334 500.5272,236.416104 501.388224,236.135045 C502.405392,235.804911 510.609657,224.482223 510.609657,224.482223 C510.609657,224.482223 535.039538,191.290419 536.288692,189.443456 L543.993295,146.49576 L567.138333,146.308833 C567.138333,146.308833 557.470774,192.691256 556.524986,194.988807 C555.579198,197.281897 516.864349,237.825864 513.58532,241.515329 C513.58532,241.515329 511.466219,247.506807 510.002925,251.214117 C508.544091,254.921427 505.416745,257.629415 504.836781,258.593048 C504.747556,258.735808 502.615072,261.823003 498.885455,264.825434 C495.673345,267.412967 497.373086,263.384445 497.373086,263.384445 C497.373086,263.384445 502.342935,257.442042 501.758509,257.089602 C501.312383,256.817465 498.805152,260.239254 495.285215,263.143537 C494.38404,263.888568 493.487325,264.624677 492.65753,265.289405 C490.480434,267.03822 488.63347,266.110278 490.578581,263.888568 C491.270077,263.103386 492.44339,261.831925 493.424868,261.055665 C494.486649,260.216948 495.151377,259.083787 495.918714,258.231685 C497.440005,256.545328 498.577628,255.331864 498.466096,255.300635 C498.323336,255.260484 498.363487,254.693903 497.373086,255.452318 C496.18639,256.366877 494.152054,258.905336 492.282784,260.105416 C491.225465,260.78799 489.115287,262.349432 489.115287,262.349432 C489.115287,262.349432 485.416899,264.080402 485.220603,263.888568 C484.154361,262.858016 486.273462,260.939673 487.852749,260.212487 C488.566551,259.213163 490.841796,257.633876 490.841796,257.633876 C490.841796,257.633876 494.611564,253.351063 493.951297,252.753253 C493.665776,252.498961 491.006863,254.818818 487.99551,256.656859 C485.202758,258.361062 482.048645,259.605755 481.566828,259.074864 C480.750417,258.173689 483.61901,255.934134 483.61901,255.934134 C483.61901,255.934134 485.724726,254.479762 486.380532,253.935488 C487.147869,253.30645 489.284815,251.218578 489.284815,251.218578 C489.284815,251.218578 496.351457,243.585356 495.682267,243.067849 C495.013078,242.550342 492.822597,241.849924 492.202481,242.157751 C491.582366,242.465578 490.806106,243.643352 490.18599,243.951179 C489.565874,244.259007 488.437175,244.107324 487.919668,243.344447 C487.406623,242.581571 489.708635,239.904813 489.708635,239.904813 C489.708635,239.904813 491.600211,237.745561 493.558706,237.174519" id="Fill-172" fill="#F48C7F"></path>
                    <path d="M531.983572,453.802392 C531.983572,453.802392 532.808906,468.622711 532.813368,468.649478 C533.116734,470.532132 534.307891,475.180769 534.307891,476.889433 C534.307891,483.318114 506.242079,471.437768 512.532461,468.591482 C513.103503,468.332729 516.083628,466.383156 516.271001,464.197137 C516.560983,460.824421 517.29263,454.012071 517.29263,454.012071 L531.983572,453.802392" id="Fill-173" fill="#F7A491"></path>
                    <path d="M512.603842,468.529024 C512.603842,468.529024 519.188667,470.496442 522.565844,470.987181 C525.93856,471.47792 530.390901,467.337867 532.777677,468.457644 C535.405362,469.688953 535.137686,481.801285 535.137686,481.801285 C535.137686,481.801285 499.965081,483.911462 490.029846,480.650278 C486.095011,479.356512 499.130824,473.106281 512.603842,468.529024" id="Fill-174" fill="#F5FCFF"></path>
                    <path d="M593.816691,455.225535 C593.816691,455.225535 594.642025,470.041393 594.646487,470.072622 C594.949852,471.955275 596.14101,476.603912 596.14101,478.312576 C596.14101,484.736796 568.075198,472.85645 574.36558,470.010164 C574.932161,469.755872 578.800077,466.351927 578.98745,464.161447 C579.277432,460.793192 579.125749,455.430753 579.125749,455.430753 L593.816691,455.225535" id="Fill-175" fill="#F7A491"></path>
                    <path d="M574.432499,469.952167 C574.432499,469.952167 581.021786,471.915124 584.398963,472.405863 C587.771679,472.901063 592.22402,468.76101 594.610796,469.880787 C597.238481,471.107635 597.34109,482.180492 597.34109,482.180492 C597.34109,482.180492 559.737096,484.959859 550.899332,482.35002 C546.924346,481.181169 560.963943,474.529424 574.432499,469.952167" id="Fill-176" fill="#F5FCFF"></path>
                    <path d="M549.342351,240.145721 L537.475388,245.360939 L512.519078,366.774238 L513.527323,457.792946 L533.536092,458.26584 C533.536092,458.26584 542.842289,378.645662 542.842289,372.480195 C542.842289,366.305806 585.947022,264.499761 585.947022,264.499761 L549.342351,240.145721" id="Fill-177" fill="#D64747"></path>
                    <path d="M558.501326,244.700672 C558.501326,244.700672 567.240942,338.244455 567.240942,354.015023 C567.240942,369.78113 574.32989,458.033855 574.32989,458.033855 L594.387733,457.917862 C594.387733,457.917862 595.833183,431.01644 597.983512,391.440567 C598.318107,385.243871 597.550769,372.738948 597.983512,366.323651 C601.101936,320.171875 607.271864,276.728086 604.327429,259.507607 C603.854535,256.737162 602.962283,249.487608 601.22239,247.65849 C588.088428,233.819649 558.501326,244.700672 558.501326,244.700672" id="Fill-178" fill="#FF5353"></path>
                    <path d="M534.035754,173.003252 L558.30503,171.347231 C558.30503,171.347231 559.500649,149.25059 559.500649,138.710408 C559.500649,125.922641 563.328413,107.068447 561.83389,107.423117 C557.63584,108.418425 550.386286,112.354599 547.022493,117.129489 C535.374133,133.651781 534.035754,173.003252 534.035754,173.003252" id="Fill-179" fill="#EFAB50"></path>
                    <path d="M591.532524,106.933271 C591.532524,106.933271 605.371365,108.893996 609.016218,111.61849 C613.116119,114.687393 617.67107,121.553725 617.67107,121.553725 C617.67107,121.553725 600.678115,203.367061 600.646887,217.134521 C600.62458,227.783559 604.327429,253.935488 604.327429,253.935488 C604.327429,253.935488 552.982742,257.236823 533.536092,249.416228 C533.536092,249.416228 539.674792,218.316756 539.674792,210.148182 C539.674792,201.979608 547.022493,127.715177 548.691006,122.528065 C550.207836,117.822324 552.982742,109.36689 562.36478,107.281249 C571.746818,105.196054 591.532524,106.933271 591.532524,106.933271" id="Fill-180" fill="#FFC063"></path>
                    <path d="M587.753834,84.9071179 L591.180084,107.752805 C591.180084,107.752805 578.6707,134.95447 571.202544,132.595799 C564.934468,130.616337 568.789,106.547371 568.789,106.547371 C568.789,106.547371 572.206329,93.621751 571.180238,87.1533644 C570.158608,80.6854238 587.753834,84.9071179 587.753834,84.9071179" id="Fill-181" fill="#F7A491"></path>
                    <path d="M571.180238,87.1533644 C570.158608,80.6854238 587.753834,84.9071179 587.753834,84.9071179 L588.039355,86.8018168 C587.521848,88.0692619 586.89281,89.1542413 586.129934,89.9858209 C582.19956,94.2659575 576.056399,96.836984 570.743034,97.031049 C571.273924,93.5432328 571.604058,89.8055858 571.180238,87.1533644" id="Fill-182" fill="#F47458"></path>
                    <path d="M590.640271,52.5865987 C591.139933,52.4036869 594.628641,78.6069209 588.008126,85.8163235 C581.38761,93.0257261 568.485634,95.3848425 563.859304,89.7069919 C558.737773,83.4264244 558.996526,55.2646955 569.288662,47.8478441 C579.585259,40.4314388 590.640271,52.5865987 590.640271,52.5865987" id="Fill-183" fill="#F7A491"></path>
                    <path d="M573.210113,33.8314449 C581.169008,35.47319 586.321768,40.3935181 588.213344,42.4907583 C591.826968,42.9221625 596.738819,44.9431151 601.811277,53.438254 C608.043662,63.8847497 603.439638,75.4577147 596.181161,81.1360115 C588.922685,86.8143083 589.007449,93.406272 589.007449,93.406272 L587.878749,89.9813596 C587.031109,87.4107793 586.68313,84.6853931 586.968651,81.9903435 C587.138179,80.3722431 587.481697,78.6229815 588.141964,77.1855622 C589.886318,73.3930417 584.390041,70.8737659 582.850905,67.7192061 C581.664208,65.2896018 581.606212,59.7317591 579.736942,55.7161754 L577.50631,52.6503948 C577.50631,52.6503948 572.35355,48.5951058 567.316783,49.73942 C562.275555,50.8837342 562.99828,31.7252821 573.210113,33.8314449" id="Fill-184" fill="#002949"></path>
                    <path d="M583.189961,72.3816731 C583.136425,75.5786149 584.572952,78.1955924 586.397609,78.2277135 C588.222266,78.2589423 589.743557,75.6928233 589.797093,72.4958815 C589.846166,69.2989397 588.409639,66.6824084 586.589444,66.6507334 C584.764787,66.6190584 583.243496,69.1847314 583.189961,72.3816731" id="Fill-185" fill="#F7A491"></path>
                    <path d="M572.545385,213.320141 L572.545385,213.320141 C571.358688,214.386383 569.569722,214.430995 568.32949,213.427211 L505.068767,162.30291 C505.104457,162.245806 505.5372,161.852323 505.577351,161.797449 L572.233096,208.229838 C573.955144,209.425457 574.106827,211.919304 572.545385,213.320141" id="Fill-186" fill="#2F2F3B"></path>
                    <path d="M494.192205,147.053418 C494.192205,147.053418 508.120271,160.043726 505.75134,162.413103 C503.377948,164.782927 487.304014,151.600784 487.304014,151.600784 C487.304014,151.600784 500.84395,160.453716 502.1511,159.145228 C503.458251,157.835847 494.192205,147.053418 494.192205,147.053418" id="Fill-187" fill="#2F2F3B"></path>
                    <path d="M499.336043,133.388566 C503.2798,133.053971 506.509755,136.662242 505.479203,140.48376 C505.073228,141.99256 504.042676,143.469684 501.910192,144.573401 C495.079997,148.10583 487.304014,154.632213 485.376748,161.797449 C483.44502,168.962685 472.421237,166.758375 475.178298,157.112676 C477.618609,148.576047 487.072028,134.428487 499.336043,133.388566" id="Fill-188" fill="#FF5353"></path>
                    <path d="M536.498372,188.279066 C536.708051,187.114676 543.109965,185.2231 547.156331,185.910135 C551.202698,186.601631 566.268386,192.209439 566.268386,192.209439 L610.193992,193.320294 C610.193992,193.320294 609.631872,154.788803 606.682977,151.702501 C603.72962,148.616198 607.847367,117.331139 612.504926,117.468094 C627.057569,117.897719 629.555877,166.174841 629.555877,180.641382 C629.555877,195.109261 626.664978,213.993792 623.774079,214.7299 C620.481666,215.568618 568.209036,204.874968 568.200114,204.874968 L556.04763,205.338939 C556.04763,205.338939 544.144978,200.721531 542.284631,198.861184 C540.424284,197.005298 536.288692,189.443456 536.498372,188.279066" id="Fill-189" fill="#F7A491"></path>
                    <path d="M606.464375,110.330969 C606.464375,110.330969 614.56603,112.231914 622.939823,121.81337 C630.550739,130.526665 635.346598,179.320848 635.346598,179.320848 L609.06083,183.652735 L606.964036,160.046849 L599.942007,149.250144 L606.464375,110.330969" id="Fill-190" fill="#FFC063"></path>
                    <path d="M517.480003,320.818758 L568.659624,330.887831 C577.925669,332.712488 586.709898,326.002747 587.593228,316.433335 L594.369888,237.054065 L536.998033,230.554004 L517.480003,320.818758" id="Fill-191" fill="#F5FCFF"></path>
                    <path d="M603.185346,234.488838 L604.568338,240.038651 L581.802507,242.764483 C581.802507,242.764483 578.840228,235.291866 580.696114,235.506007 C582.552,235.715686 594.369888,237.054065 594.369888,237.054065 L603.185346,234.488838" id="Fill-192" fill="#F5FCFF"></path>
                    <path d="M336.919266,482.298669 C338.025659,482.298669 339.020521,481.522409 339.248045,480.39371 L374.933696,305.257869 C375.196911,303.973025 374.367116,302.714949 373.07781,302.451734 C371.788505,302.192981 370.53489,303.022776 370.271675,304.30762 L334.586025,479.44346 C334.32281,480.732766 335.152605,481.990842 336.44191,482.254057 C336.602516,482.285286 336.763121,482.298669 336.919266,482.298669" id="Fill-193" fill="#5FD6FF"></path>
                    <path d="M464.930775,482.298669 C465.100303,482.298669 465.274292,482.280824 465.452743,482.240673 C466.733125,481.955152 467.540614,480.683692 467.255093,479.398848 L426.880654,298.980871 C426.595133,297.700488 425.319212,296.892999 424.038829,297.17852 C422.753985,297.468502 421.946496,298.739962 422.236478,300.020345 L462.610917,480.438322 C462.856287,481.549177 463.837765,482.298669 464.930775,482.298669" id="Fill-194" fill="#5FD6FF"></path>
                    <path d="M472.746909,242.523575 C472.443543,283.152306 439.421267,315.99167 398.721156,315.99167 C358.025506,315.99167 325.00323,283.152306 324.699864,242.523575 L472.746909,242.523575" id="Fill-195" fill="#FF5353"></path>
                    <path d="M336.856808,242.523575 C342.500307,277.807712 371.391453,300.158644 408.263799,300.158644 C425.845641,300.158644 443.677313,298.632892 456.37407,288.398752 C442.802905,305.222179 422.022338,315.99167 398.721156,315.99167 C358.025506,315.99167 325.00323,283.152306 324.699864,242.523575 L336.856808,242.523575" id="Fill-196" fill="#D64747"></path>
                    <path d="M324.695402,247.292666 L475.972403,247.292666 L475.972403,243.393521 C475.972403,242.603878 475.334442,241.961456 474.544799,241.961456 L324.695402,241.961456 L324.695402,247.292666" id="Fill-197" fill="#D64747"></path>
                    <path d="M317.508306,242.166674 C318.057041,246.538712 322.295242,249.38946 326.528982,248.29645 C330.013229,247.390814 332.342009,243.973486 331.891421,240.400013 C331.342686,236.027974 327.104485,233.177227 322.875207,234.274698 C319.386498,235.175873 317.06218,238.593201 317.508306,242.166674" id="Fill-198" fill="#2F2F3B"></path>
                    <path d="M319.99323,241.631322 C320.2386,244.7319 323.303488,246.748392 326.247922,245.744607 C328.25103,245.057573 329.571564,243.054465 329.406497,240.939826 C329.165589,237.839248 326.096239,235.818295 323.151805,236.826541 C321.148697,237.509114 319.828163,239.516683 319.99323,241.631322" id="Fill-199" fill="#272733"></path>
                    <polygon id="Fill-200" fill="#5FD6FF" points="354.75986 392.350665 444.743555 392.350665 444.743555 383.209535 354.75986 383.209535"></polygon>
                    <path d="M393.113347,235.590771 L452.443697,235.590771 C454.616332,235.590771 456.37407,233.833033 456.37407,231.664858 L456.37407,230.357708 C456.37407,228.189534 454.616332,226.427334 452.443697,226.427334 L393.113347,226.427334 C390.945173,226.427334 389.187435,228.189534 389.187435,230.357708 L389.187435,231.664858 C389.187435,233.833033 390.945173,235.590771 393.113347,235.590771" id="Fill-201" fill="#EFAB50"></path>
                    <path d="M393.113347,235.590771 L435.236602,235.590771 C437.404776,235.590771 439.162514,233.833033 439.162514,231.664858 L439.162514,230.357708 C439.162514,228.189534 437.404776,226.427334 435.236602,226.427334 L393.113347,226.427334 C390.945173,226.427334 389.187435,228.189534 389.187435,230.357708 L389.187435,231.664858 C389.187435,233.833033 390.945173,235.590771 393.113347,235.590771" id="Fill-202" fill="#FFC063"></path>
                    <path d="M347.327395,235.336479 L378.47594,235.336479 C380.586118,235.336479 382.294782,233.627814 382.294782,231.517637 L382.294782,230.246176 C382.294782,228.14046 380.586118,226.427334 378.47594,226.427334 L347.327395,226.427334 C345.217217,226.427334 343.508553,228.14046 343.508553,230.246176 L343.508553,231.517637 C343.508553,233.627814 345.217217,235.336479 347.327395,235.336479" id="Fill-203" fill="#FFC063"></path>
                    <path d="M337.423388,241.961456 L461.263616,241.961456 C462.856287,241.961456 464.150053,240.67215 464.150053,239.079479 L464.150053,238.120307 C464.150053,236.523175 462.856287,235.233869 461.263616,235.233869 L337.423388,235.233869 C335.830717,235.233869 334.536951,236.523175 334.536951,238.120307 L334.536951,239.079479 C334.536951,240.67215 335.830717,241.961456 337.423388,241.961456" id="Fill-204" fill="#2F2F3B"></path>
                    <path d="M223.612083,375.74584 C224.165279,366.787622 228.528396,351.797775 228.528396,351.797775 L213.003197,248.323218 L252.953816,233.569818 L263.750075,236.549942 C263.750075,236.549942 270.468738,257.500038 268.354099,288.983178 C267.2254,305.802143 247.970584,452.640186 247.970584,452.640186 C248.242721,456.918539 248.885143,462.95909 250.384128,464.734673 C251.820655,466.438876 253.493629,468.138617 255.153219,469.222705 C255.813486,469.646525 257.629221,470.877834 258.128882,471.136587 C265.788873,475.075883 267.725061,476.316114 270.125221,478.194307 C271.588516,479.340851 270.267982,479.385464 268.452247,479.354235 L237.696293,478.671662 C237.696293,478.671662 236.665741,479.140094 235.376436,476.58379 C234.091592,474.023025 236.375759,468.624895 236.879882,465.907985 C237.223399,464.056561 237.285857,460.808761 237.22786,457.427123 C237.205554,457.297746 223.063347,384.690674 223.612083,375.74584" id="Fill-205" fill="#F48C7F"></path>
                    <path d="M255.153219,469.218243 C246.328839,471.627326 239.806471,469.990042 236.161618,468.424138 C235.220292,471.261502 233.971138,474.821591 234.631405,476.873772 C235.443355,479.385464 236.594361,479.952045 237.61599,479.983273 C245.673033,480.206337 267.131713,480.514164 273.274874,480.598928 C274.131436,480.612312 274.608791,479.546069 274.055595,478.84119 C272.529842,476.905001 255.809025,469.646525 255.153219,469.218243" id="Fill-206" fill="#F5FCFF"></path>
                    <path d="M218.526242,280.109724 L213.587623,247.181134 L253.53378,232.427734 L264.22743,232.972009 C264.22743,232.972009 270.607038,254.600216 269.139282,284.347925 C256.326532,284.15609 234.515412,283.326295 218.526242,280.109724" id="Fill-207" fill="#EAF5F9"></path>
                    <path d="M258.160111,217.736792 L211.508674,212.833863 L211.419448,218.089232 C209.862467,221.140736 189.871543,227.462348 191.620359,258.825033 C192.646449,277.142983 210.656572,339.060866 206.351452,341.577019 C206.351452,341.577019 175.805178,348.384908 145.713952,375.384478 C142.52861,376.959304 140.27121,377.963088 139.74032,378.137078 C139.173739,378.324451 136.162386,377.93186 135.573499,378.11031 C126.450214,388.058929 126.530517,400.229257 127.940276,410.44109 C131.732351,404.503148 136.376527,396.133817 137.839821,395.518162 C138.906063,395.076497 144.344344,392.654031 150.29567,390.142339 C167.654448,383.602126 222.304932,364.98081 232.017104,359.270392 C236.545287,356.607018 251.718046,264.584525 252.828901,259.173012 C253.480245,255.992131 255.010459,244.192088 257.187556,236.746238 C258.994367,230.57631 259.324501,224.062864 258.160111,217.736792" id="Fill-208" fill="#F7A491"></path>
                    <path d="M139.3165,378.186152 C135.051531,376.473026 126.021933,375.366633 125.682877,376.218734 C125.272441,377.235902 113.62408,413.809345 117.61245,419.40377 C120.008149,422.772024 123.113189,417.690644 127.949199,410.44109 C126.53944,400.229257 136.479136,378.435982 139.3165,378.186152" id="Fill-209" fill="#F5FCFF"></path>
                    <path d="M250.263674,275.461087 C251.793887,266.699164 252.864591,260.466779 253.127805,259.173012 C253.77915,255.992131 255.309363,244.192088 257.490922,236.746238 C259.297733,230.57631 259.627867,224.062864 258.463477,217.736792 L211.807578,212.833863 L211.419448,218.089232 C209.924925,221.015821 190.866405,226.958225 190.897596,255.095417 C199.409726,256.853155 223.598699,262.443119 250.263674,275.461087" id="Fill-210" fill="#F5FCFF"></path>
                    <path d="M154.163586,42.207468 C157.91997,52.2118525 151.977567,59.671532 147.846436,69.5237874 C145.07153,76.1376113 151.187923,86.6412112 158.102882,91.479452 C175.613343,103.733652 179.722168,104.050848 178.455169,120.693593 C175.408125,160.780727 222.947354,143.692301 230.593961,142.418164 C238.240567,141.143581 244.013443,141.488883 247.667218,138.939717 C258.677618,131.256974 269.014366,108.184655 267.073717,88.750943 C265.137528,69.3167848 242.184325,75.9939586 236.933417,67.0709845 C231.682509,58.1480104 247.551225,47.0354479 234.029134,32.1339339 C195.198292,-10.6611871 154.663248,18.0416932 153.217798,34.4069479 C152.950122,37.4464071 153.342714,40.0241254 154.163586,42.207468" id="Fill-211" fill="#002949"></path>
                    <path d="M263.107653,124.384397 C263.107653,124.384397 285.253367,86.548417 290.499814,77.7334054 C295.74626,68.9183939 309.272813,34.2405428 309.75909,32.8762882 C310.240907,31.5124798 299.957693,15.9038555 302.206171,15.2444807 C304.450186,14.585552 307.051103,23.5013881 309.437879,22.3062155 C311.829117,21.1110428 318.592393,-0.979351954 319.975385,0.0338010987 C322.562918,1.9298383 316.352839,13.7098059 317.726908,14.3669501 C319.100977,15.0245404 323.080425,1.47746613 325.766106,1.74157296 C328.456248,2.00523366 320.809641,14.2210667 321.572518,15.2306508 C322.335394,16.2402348 330.285366,4.69492972 331.775428,7.00274158 C332.582917,8.25635676 324.458955,17.0994743 326.047165,17.8146149 C327.635375,18.5297555 334.889391,12.7252049 335.679034,14.2603258 C336.473139,15.7954468 328.960371,18.3111536 326.756506,22.6586553 C324.548181,27.0066032 320.7338,29.0235407 319.230354,36.9507606 C317.726908,44.8775345 315.375822,78.0479245 307.372314,92.6135054 C299.373268,107.179978 282.844285,134.662703 282.844285,134.662703 L263.107653,124.384397" id="Fill-212" fill="#F7A491"></path>
                    <path d="M201.394988,137.199824 C201.394988,137.199824 154.828315,138.35886 144.607559,139.197132 C134.382342,140.035849 97.2869315,136.948655 95.8504045,136.782696 C94.4138775,136.61629 84.9113852,120.523173 83.3320978,122.250574 C81.7528103,123.978422 88.6186956,130.230437 86.4951339,131.852107 C84.3715723,133.474222 61.5566682,129.841415 61.8600342,131.528665 C62.4266147,134.685009 75.7345652,134.282603 75.7211814,135.806125 C75.7077976,137.3292 61.7886539,134.951347 60.8473272,137.48133 C59.9015393,140.01042 74.2355805,138.512774 74.8066223,139.641027 C75.3776641,140.769727 61.5165168,142.836631 62.9351988,145.189502 C63.7025362,146.466761 75.2170586,143.055679 75.1635234,144.79691 C75.105527,146.538142 66.7049669,150.501082 67.7355188,151.888089 C68.7660708,153.275543 74.329267,147.630705 79.2009673,147.561109 C84.0771288,147.490621 87.5658373,144.947701 95.3462817,147.081524 C103.126726,149.215792 129.805085,156.716515 146.249304,159.123813 C163.063808,161.585985 202.135558,163.396812 202.135558,163.396812 L201.394988,137.199824" id="Fill-213" fill="#F7A491"></path>
                    <path d="M275.019228,189.327463 C277.35693,164.564325 271.909727,159.756867 271.566209,157.208593 C273.890528,149.231407 282.36693,137.405042 284.142513,134.060878 C284.142513,134.060878 272.645835,121.03488 264.12036,121.143497 C264.12036,121.143497 255.046149,132.598476 248.318563,136.109045 C248.215954,136.083616 245.936248,137.127105 244.932463,137.119521 C238.432402,137.073124 215.720107,136.384751 211.481906,137.649965 L206.37822,172.957301 C207.600606,174.969331 209.081746,215.323248 211.593438,218.642429 C214.10959,221.96607 258.169034,236.871153 264.22743,232.972009 C264.468338,232.820326 273.555933,204.834817 275.019228,189.327463" id="Fill-214" fill="#F7A491"></path>
                    <path d="M223.308717,138.464146 C219.11959,136.462377 188.515319,136.527709 188.515319,136.527709 C188.515319,136.527709 184.46003,160.424718 187.881819,165.49896 C187.881819,165.49896 209.911541,173.670211 209.144204,175.894151 L223.308717,138.464146" id="Fill-215" fill="#5FD6FF"></path>
                    <path d="M268.443325,219.476685 C271.115622,210.108031 274.2162,197.839555 275.019228,189.327463 C277.35693,164.564325 271.909727,159.756867 271.566209,157.208593 C273.890528,149.231407 282.36693,137.405042 284.142513,134.060432 C284.142513,134.060432 272.645835,121.034434 264.12036,121.143491 C264.12036,121.143491 255.046149,132.59803 248.318563,136.109045 C248.215954,136.083616 245.936248,137.127105 244.932463,137.119521 C238.432402,137.073124 219.552333,135.929702 211.481906,137.649965 L206.37822,172.956855 C207.216938,174.338954 208.180571,193.802111 209.514489,206.936072 C216.563286,210.24633 236.326685,218.035697 268.443325,219.476685" id="Fill-216" fill="#5FD6FF"></path>
                    <path d="M230.116606,124.195239 C230.116606,124.195239 232.467692,136.370921 231.999259,141.173026 C231.526365,145.975576 233.792687,161.453486 243.959908,161.504442 C254.122667,161.555202 245.887174,141.825708 244.932463,137.119521 C243.973292,132.41378 243.745767,117.845522 243.745767,117.845522 L230.116606,124.195239" id="Fill-217" fill="#F7A491"></path>
                    <path d="M243.955447,125.154411 C243.799302,121.169164 243.745767,117.845522 243.745767,117.845522 L230.116606,124.195239 C230.116606,124.195239 230.598422,126.685071 231.080239,129.856583 C237.044949,131.056217 241.372375,128.847445 243.955447,125.154411" id="Fill-218" fill="#F47458"></path>
                    <path d="M225.133374,90.593445 C225.133374,90.593445 219.878005,93.5079888 217.959661,99.8238002 C216.041318,106.139612 218.222876,122.437501 231.794041,126.370552 C245.360745,130.303156 251.240691,117.398057 248.447939,107.308017 C245.650727,97.218422 239.574485,84.441362 225.133374,90.593445" id="Fill-219" fill="#F7A491"></path>
                    <path d="M250.14322,103.397273 C249.875544,106.107491 248.38102,108.178855 246.801733,108.023603 C245.226907,107.869244 244.160665,105.54671 244.428341,102.836938 C244.691555,100.12672 246.186079,98.0558013 247.765366,98.210161 C249.344653,98.365413 250.410896,100.687501 250.14322,103.397273" id="Fill-220" fill="#F7A491"></path>
                    <path d="M226.726045,89.7703418 C226.726045,89.7703418 224.263427,107.951331 218.383481,111.232145 C212.507997,114.512958 214.966153,122.578477 214.966153,122.578477 C214.966153,122.578477 209.634943,103.850537 214.28358,97.835861 C218.932217,91.8211849 226.726045,89.7703418 226.726045,89.7703418" id="Fill-221" fill="#FF5353"></path>
                    <path d="M221.867729,113.841984 C223.4604,116.210915 223.455939,119.004113 221.854345,120.081508 C220.252751,121.158903 217.660757,120.11229 216.068085,117.743359 C214.475414,115.374428 214.479875,112.580785 216.081469,111.503835 C217.683063,110.42644 220.270596,111.473053 221.867729,113.841984" id="Fill-222" fill="#F7A491"></path>
                    <path d="M231.838654,116.562463 L242.679525,112.871659 C242.679525,112.871659 243.852837,117.149565 239.13282,118.913549 C233.37779,121.063432 231.838654,116.562463 231.838654,116.562463" id="Fill-223" fill="#FFFFFF"></path>
                </g>
                <rect id="Rectangle" fill="url(#linearGradient-1)" x="0" y="311.333333" width="702" height="175"></rect>
            </g>
        </g>
    </g>
</svg>