<?xml version="1.0" encoding="UTF-8"?>
<svg width="96px" height="96px" viewBox="0 0 96 96" version="1.1" xmlns="http://www.w3.org/2000/svg" xmlns:xlink="http://www.w3.org/1999/xlink">
    <title>56A15AC3-468C-4380-B9C1-23825EC06354</title>
    <g id="Page-1" stroke="none" stroke-width="1" fill="none" fill-rule="evenodd" opacity="0.4">
        <g id="landing" transform="translate(-215.000000, -4687.000000)" fill="#002949" fill-rule="nonzero">
            <g id="Group-16" transform="translate(0.000000, 4448.000000)">
                <g id="Group-12" transform="translate(120.000000, 187.000000)">
                    <g id="hl-logo" transform="translate(95.054545, 52.000000)">
                        <path d="M47.9590909,4.07727273 C72.2045455,4.07727273 91.8545455,23.7272727 91.8545455,47.9727273 C91.8545455,72.2181818 72.2045455,91.8681818 47.9590909,91.8681818 C23.7136364,91.8681818 4.06363636,72.2045455 4.06363636,47.9727273 C4.06363636,23.7272727 23.7136364,4.07727273 47.9590909,4.07727273 Z M73.9157455,68.1002318 L70.8545455,68.1 L70.8545455,74.4272727 L74.6454545,74.4272727 L74.8441137,74.4222416 C76.2707596,74.3489861 77.0318182,73.4875494 77.0318182,72.6136364 C77.0318182,71.8363636 76.5,71.25 75.5454545,71.0863636 L75.5454545,71.0863636 L75.5454545,71.0727273 L75.6984064,71.016199 C76.340051,70.7543599 76.7045455,70.275 76.7045455,69.6545455 C76.7045455,69.0272727 76.2954545,68.5772727 75.7772727,68.3318182 C75.36,68.1231818 74.5671818,68.1023182 73.9157455,68.1002318 L73.9157455,68.1002318 Z M62.6318182,68.1 L61.4727273,68.1 L58.4181818,74.4272727 L59.4954545,74.4272727 L60.3681818,72.5181818 L63.6818182,72.5181818 L64.5409091,74.4272727 L65.7,74.4272727 L62.6318182,68.1 Z M49.8954545,68.1 L48.8590909,68.1 L48.8454545,74.4272727 L54.0409091,74.4272727 L54.0409091,73.7181818 L49.8954545,73.7181818 L49.8954545,68.1 Z M74.2772727,71.5227273 C75.15,71.5227273 75.9818182,71.7545455 75.9818182,72.5727273 C75.9818182,73.2681818 75.4227273,73.7045455 74.5090909,73.7045455 L74.5090909,73.7045455 L71.8909091,73.7045455 L71.8909091,71.5227273 Z M62.0454545,68.8636364 L63.3545455,71.8227273 L60.6954545,71.8227273 L62.0181818,68.8636364 L62.0454545,68.8636364 Z M73.9772727,68.8090909 C74.8909091,68.8090909 75.6409091,68.9181818 75.6409091,69.8181818 C75.6409091,70.4863636 75.1636364,70.8272727 73.9772727,70.8272727 L73.9772727,70.8272727 L71.8909091,70.8272727 L71.8909091,68.8090909 Z M56.3454545,32.7409091 L48.5863636,32.7409091 L48.5863636,64.8545455 L77.0181818,64.8545455 L77.0181818,58.65 L56.3454545,58.65 L56.3454545,32.7409091 Z M25.5545455,32.7409091 L17.8090909,32.7409091 L17.8090909,64.8545455 L25.5545455,64.8545455 L25.5545455,51.2318182 L38.5772727,51.2318182 L38.5772727,64.8545455 L46.3363636,64.8545455 L46.3363636,32.7545455 L38.5772727,32.7545455 L38.5772727,45.0272727 L25.5545455,45.0272727 L25.5545455,32.7409091 Z M29.25,23.1681818 L28.5272727,23.1681818 C28.8818182,25.1045455 30.0954545,26.3045455 31.9090909,26.4818182 L31.9090909,26.4818182 L31.9090909,29.4136364 C30.0681818,29.7136364 28.8545455,30.7363636 28.5136364,32.7409091 L28.5136364,32.7409091 L29.2636364,32.7409091 C29.4954545,31.3636364 30.3681818,30.3272727 32.0454545,30.1227273 L32.0454545,30.1227273 L32.5227273,30.1227273 C34.05,30.3 34.9772727,31.1727273 35.3045455,32.7545455 L35.3045455,32.7545455 L36.0545455,32.7545455 C35.7,30.9681818 34.7045455,29.7136364 32.6181818,29.4136364 L32.6181818,29.4136364 L32.6181818,26.55 C34.5681818,26.2090909 35.6727273,25.0636364 36.0409091,23.1681818 L36.0409091,23.1681818 L35.2772727,23.1681818 C35.0727273,24.6818182 33.9818182,25.6090909 32.5227273,25.8 L32.5227273,25.8 L31.9909091,25.8 C30.4636364,25.5272727 29.5636364,24.7090909 29.25,23.1681818 L29.25,23.1681818 Z M73.5136364,22.9090909 L71.0181818,22.9090909 L71.0181818,29.5227273 L73.5136364,29.5227273 L73.7443285,29.518821 C76.0092896,29.4407956 77.0181818,28.1969208 77.0181818,26.0590909 C77.0181818,23.9318182 75.7636364,22.9090909 73.5136364,22.9090909 L73.5136364,22.9090909 Z M64.8681818,22.8954545 L63.9,22.8954545 L63.9,29.5227273 L64.8681818,29.5227273 L64.8681818,22.8954545 Z M55.7863636,22.9090909 L52.35,22.9090909 L52.35,29.5227273 L53.3181818,29.5227273 L53.3181818,26.6863636 L55.6909091,26.6863636 L55.8490304,26.6920702 C56.6508808,26.7524221 56.8018717,27.2831551 56.9045455,27.8863636 C57.0409091,28.5409091 56.8909091,29.25 57.1636364,29.5227273 L57.1636364,29.5227273 L58.2409091,29.5227273 L58.1397787,29.3931869 C57.8362134,28.9396319 57.8553719,28.2780992 57.8181818,27.6954545 C57.7363636,27.0545455 57.5727273,26.4818182 56.7272727,26.3318182 L56.7272727,26.3318182 L56.7272727,26.3181818 L56.8875832,26.272229 C57.6598722,26.0175959 57.9954545,25.3951705 57.9954545,24.6409091 C57.9954545,23.5772727 57.1636364,22.9090909 55.7863636,22.9090909 L55.7863636,22.9090909 Z M40.8,22.9090909 L40.8,29.5227273 L44.3454545,29.5227273 L44.5383282,29.5169823 C45.8587528,29.4371619 46.5545455,28.5384298 46.5545455,27.6272727 C46.5545455,26.8090909 46.0636364,26.2090909 45.1636364,26.0318182 L45.1636364,26.0318182 L45.1636364,26.0181818 L45.3053174,25.9612411 C45.8999304,25.6958488 46.2409091,25.1902597 46.2409091,24.5318182 C46.2409091,23.8772727 45.8590909,23.4136364 45.3818182,23.1545455 C45.0013636,22.9336364 44.2564091,22.9115455 43.644,22.9093364 L43.644,22.9093364 L40.8,22.9090909 Z M18.7636364,22.8954545 L17.7954545,22.8954545 L17.7954545,29.5227273 L18.7636364,29.5227273 L18.7636364,26.4954545 L22.6090909,26.4954545 L22.6090909,29.5227273 L23.5772727,29.5227273 L23.5772727,22.8954545 L22.6090909,22.8954545 L22.6090909,25.7454545 L18.7636364,25.7454545 L18.7636364,22.8954545 Z M73.6227273,23.6318182 C75.4090909,23.6318182 76.05,24.5863636 76.05,26.1681818 C76.05,28.6090909 74.2636364,28.7727273 73.5954545,28.7727273 L73.5954545,28.7727273 L71.9863636,28.7727273 L71.9863636,23.6318182 Z M44.0045455,26.4818182 C44.8227273,26.4818182 45.5863636,26.7272727 45.5863636,27.5863636 C45.5863636,28.3227273 45.0681818,28.7727273 44.2227273,28.7727273 L44.2227273,28.7727273 L41.7954545,28.7727273 L41.7954545,26.4818182 Z M55.7181818,23.6318182 C56.6318182,23.6318182 57.0136364,24.1090909 57.0136364,24.7636364 C57.0136364,25.7318182 56.2227273,25.9363636 55.3227273,25.9363636 L55.3227273,25.9363636 L53.3181818,25.9363636 L53.3181818,23.6318182 Z M43.7318182,23.6318182 C44.5772727,23.6318182 45.2863636,23.7545455 45.2863636,24.6818182 C45.2863636,25.3909091 44.8363636,25.7454545 43.7318182,25.7454545 L43.7318182,25.7454545 L41.7954545,25.7454545 L41.7954545,23.6318182 Z M32.2909091,22.8954545 C31.5954545,22.8954545 31.0227273,23.4681818 31.0090909,24.1772727 C31.0090909,24.8863636 31.5818182,25.4590909 32.2909091,25.4590909 C33,25.4590909 33.5727273,24.8863636 33.5727273,24.1772727 C33.5727273,23.4681818 33,22.8954545 32.2909091,22.8954545 Z" id="Combined-Shape"></path>
                        <path d="M81.8590909,81.8590909 C73.1863636,90.5454545 61.1863636,95.9318182 47.9590909,95.9318182 C34.7318182,95.9318182 22.7454545,90.5454545 14.0590909,81.8727273 C5.37272727,73.1863636 0,61.2 0,47.9727273 C0,34.7454545 5.38636364,22.7590909 14.0590909,14.0727273 C22.7454545,5.37272727 34.7454545,0 47.9590909,0 C61.1863636,0 73.1727273,5.37272727 81.8590909,14.0590909 C90.5454545,22.7454545 95.9182076,34.7318182 95.9182076,47.9590909 C95.9318182,61.1863636 90.5454545,73.1727273 81.8590909,81.8590909 M47.9590909,94.5681818 C60.8045455,94.5681818 72.4636364,89.3454545 80.9045455,80.9045455 C89.3454545,72.4636364 94.5681818,60.8181818 94.5681818,47.9590909 C94.5681818,35.1136364 89.3454545,23.4545455 80.9045455,15.0136364 C72.4636364,6.58636364 60.8181818,1.36363636 47.9590909,1.36363636 C35.1136364,1.36363636 23.4545455,6.58636364 15.0136364,15.0272727 C6.57272727,23.4681818 1.35,35.1136364 1.35,47.9727273 C1.35,60.8181818 6.57272727,72.4772727 15.0136364,80.9181818 C23.4681818,89.3454545 35.1136364,94.5681818 47.9590909,94.5681818 Z" id="Shape"></path>
                        <path d="M81.75,86.9863636 C82.4863636,86.9863636 83.2090909,87.1772727 83.9181818,87.5590909 C84.6272727,87.9409091 85.1727273,88.4863636 85.5681818,89.1818182 C85.9636364,89.8909091 86.1545455,90.6272727 86.1545455,91.3909091 C86.1545455,92.1545455 85.9636364,92.8772727 85.5681818,93.5727273 C85.1727273,94.2681818 84.6409091,94.8136364 83.9454545,95.2090909 C83.25,95.5909091 82.5136364,95.7954545 81.75,95.7954545 C80.9863636,95.7954545 80.2636364,95.6045455 79.5545455,95.2090909 C78.8590909,94.8272727 78.3136364,94.2818182 77.9181818,93.5727273 C77.5227273,92.8772727 77.3318182,92.1409091 77.3318182,91.3909091 C77.3318182,90.6272727 77.5227273,89.8909091 77.9181818,89.1818182 C78.3136364,88.4727273 78.8590909,87.9272727 79.5681818,87.5590909 C80.2909091,87.1772727 81.0136364,86.9863636 81.75,86.9863636 Z M81.75,87.7090909 C81.1363636,87.7090909 80.5363636,87.8727273 79.95,88.1863636 C79.3636364,88.5 78.9,88.95 78.5727273,89.55 C78.2454545,90.15 78.0818182,90.75 78.0818182,91.3909091 C78.0818182,92.0181818 78.2454545,92.6318182 78.5727273,93.2181818 C78.9,93.8045455 79.35,94.2545455 79.9363636,94.5818182 C80.5227273,94.9090909 81.1227273,95.0727273 81.7636364,95.0727273 C82.3909091,95.0727273 83.0045455,94.9090909 83.5909091,94.5818182 C84.1772727,94.2545455 84.6272727,93.8045455 84.9545455,93.2181818 C85.2818182,92.6318182 85.4318182,92.0318182 85.4318182,91.3909091 C85.4318182,90.75 85.2681818,90.1363636 84.9409091,89.55 C84.6136364,88.9636364 84.15,88.5136364 83.5636364,88.1863636 C82.9636364,87.8727273 82.3636364,87.7090909 81.75,87.7090909 Z M79.8272727,93.8181818 L79.8272727,89.0863636 L81.45,89.0863636 C82.0090909,89.0863636 82.4045455,89.1272727 82.6636364,89.2227273 C82.9227273,89.3181818 83.1136364,89.4681818 83.2636364,89.6863636 C83.4136364,89.9045455 83.4818182,90.1363636 83.4818182,90.3818182 C83.4818182,90.7227273 83.3590909,91.0227273 83.1136364,91.2818182 C82.8681818,91.5409091 82.5409091,91.6772727 82.1318182,91.7181818 C82.2954545,91.7863636 82.4318182,91.8681818 82.5409091,91.9636364 C82.7318182,92.1545455 82.9636364,92.4681818 83.2363636,92.9045455 L83.8090909,93.8318182 L82.8818182,93.8318182 L82.4590909,93.0818182 C82.1318182,92.4954545 81.8590909,92.1272727 81.6545455,91.9772727 C81.5181818,91.8681818 81.3136364,91.8136364 81.0409091,91.8136364 L80.5909091,91.8136364 L80.5909091,93.8181818 L79.8272727,93.8181818 Z M80.5909091,91.1454545 L81.5181818,91.1454545 C81.9681818,91.1454545 82.2681818,91.0772727 82.4318182,90.9409091 C82.5954545,90.8045455 82.6772727,90.6272727 82.6772727,90.4090909 C82.6772727,90.2727273 82.6363636,90.15 82.5545455,90.0272727 C82.4727273,89.9181818 82.3636364,89.8363636 82.2272727,89.7818182 C82.0909091,89.7272727 81.8318182,89.7 81.4636364,89.7 L80.5909091,89.7 L80.5909091,91.1454545 L80.5909091,91.1454545 Z" id="Shape"></path>
                    </g>
                </g>
            </g>
        </g>
    </g>
</svg>