<?xml version="1.0" encoding="UTF-8"?>
<svg width="146px" height="26px" viewBox="0 0 146 26" version="1.1" xmlns="http://www.w3.org/2000/svg" xmlns:xlink="http://www.w3.org/1999/xlink">
    <title>3868055A-EA96-4C92-BBBA-627DDA3A5F79</title>
    <g id="Page-1" stroke="none" stroke-width="1" fill="none" fill-rule="evenodd">
        <g id="landing" transform="translate(-1174.000000, -5243.000000)">
            <g id="Group-22" transform="translate(0.000000, 4915.000000)">
                <g id="copyrights" transform="translate(120.000000, 302.000000)">
                    <g id="imas-logo" transform="translate(1054.000000, 26.541421)">
                        <g id="Group-17" opacity="0.202101935" transform="translate(0.000000, 4.958531)" fill="#FFFFFF">
                            <path d="M109.223,14.0000476 C109.673002,14.0000476 110.067498,14.0520716 110.4065,14.156121 C110.745502,14.2601705 111.039499,14.3994111 111.2885,14.573847 C111.537501,14.7482829 111.744499,14.9487282 111.9095,15.1751888 C112.074501,15.4016495 112.205,15.6342272 112.301,15.872929 C112.397,16.1116307 112.466,16.3503289 112.508,16.5890307 C112.55,16.8277324 112.571,17.0480692 112.571,17.2500476 C112.571,17.6662455 112.496001,18.0686662 112.346,18.4573216 C112.195999,18.845977 111.974001,19.1917834 111.68,19.494751 C111.385999,19.7977186 111.021502,20.0410071 110.5865,20.2246239 C110.151498,20.4082406 109.649003,20.5000476 109.079,20.5000476 L107,20.5000476 L107,14.0000476 L109.223,14.0000476 Z M115.705,16.0000476 C116.083002,16.0000476 116.402499,16.066312 116.6635,16.1988428 C116.924501,16.3313736 117.138999,16.5045646 117.307,16.7184211 C117.475001,16.9322776 117.5965,17.173239 117.6715,17.4413127 C117.7465,17.7093863 117.784,17.9819739 117.784,18.2590837 L117.784,18.5482404 L114.364,18.5482404 C114.364,18.7349883 114.4045,18.9051673 114.4855,19.0587825 C114.5665,19.2123978 114.672999,19.3434206 114.805,19.4518548 C114.937001,19.5602891 115.089999,19.6446256 115.264,19.7048669 C115.438001,19.7651081 115.617999,19.7952283 115.804,19.7952283 C116.056001,19.7952283 116.274999,19.736494 116.461,19.6190235 C116.647001,19.501553 116.817999,19.3464341 116.974,19.1536621 L117.586,19.6235416 C117.135998,20.2078818 116.506004,20.5000476 115.696,20.5000476 C115.359998,20.5000476 115.055501,20.4428193 114.7825,20.3283609 C114.509499,20.2139025 114.278501,20.0557715 114.0895,19.8539633 C113.900499,19.652155 113.755001,19.4142056 113.653,19.1401078 C113.550999,18.8660101 113.5,18.5693263 113.5,18.2500476 C113.5,17.9307689 113.555499,17.6340851 113.6665,17.3599874 C113.777501,17.0858896 113.930499,16.8479402 114.1255,16.6461319 C114.320501,16.4443237 114.552999,16.2861928 114.823,16.1717343 C115.093001,16.0572759 115.386998,16.0000476 115.705,16.0000476 Z M119.936,16.0000476 L121.214,19.4462501 L122.438,16.0000476 L123.302,16.0000476 L121.628,20.5000476 L120.737,20.5000476 L119,16.0000476 L119.936,16.0000476 Z M127.903,14.0000476 C128.125001,14.0000476 128.336499,14.0294059 128.5375,14.0881235 C128.738501,14.146841 128.913999,14.234916 129.064,14.3523511 C129.214001,14.4697862 129.3325,14.6165779 129.4195,14.7927305 C129.5065,14.9688832 129.55,15.1743915 129.55,15.4092617 C129.55,15.6030296 129.511,15.7806475 129.433,15.9421208 C129.355,16.103594 129.253001,16.2503857 129.127,16.3825002 C129.000999,16.5146147 128.860001,16.632048 128.704,16.7348037 C128.547999,16.8375594 128.389001,16.9300382 128.227,17.0122427 L129.487,18.2981506 L130.288,17.0210503 L131.269,17.0210503 L130.036,18.888259 L131.485,20.341511 L130.324,20.341511 L129.541,19.5135977 C129.270999,19.8306725 128.984502,20.0743467 128.6815,20.2446275 C128.378498,20.4149084 128.014002,20.5000476 127.588,20.5000476 C127.227998,20.5000476 126.916001,20.4486705 126.652,20.3459148 C126.387999,20.2431591 126.170501,20.1066429 125.9995,19.936362 C125.828499,19.7660811 125.7025,19.573784 125.6215,19.3594649 C125.5405,19.1451459 125.5,18.9234905 125.5,18.694492 C125.5,18.4772371 125.539,18.2790684 125.617,18.0999799 C125.695,17.9208913 125.799999,17.7579526 125.932,17.6111587 C126.064001,17.4643648 126.218499,17.3322523 126.3955,17.2148172 C126.572501,17.0973822 126.756999,16.994628 126.949,16.9065517 C126.744999,16.6951685 126.569501,16.4779168 126.4225,16.2547901 C126.275499,16.0316635 126.202,15.7674385 126.202,15.4621072 C126.202,15.227237 126.2485,15.0187929 126.3415,14.8367685 C126.4345,14.6547441 126.558999,14.5020807 126.715,14.3787739 C126.871001,14.255467 127.050999,14.1615204 127.255,14.0969311 C127.459001,14.0323418 127.674999,14.0000476 127.903,14.0000476 Z M134.864,14.0000476 L134.864,17.8857225 C134.864,18.0826932 134.891,18.2871218 134.945,18.4990145 C134.999,18.7109072 135.088999,18.9063828 135.215,19.0854471 C135.341001,19.2645113 135.505999,19.4107449 135.71,19.5241523 C135.914001,19.6375596 136.165998,19.6942625 136.466,19.6942625 C136.766001,19.6942625 137.017999,19.6375596 137.222,19.5241523 C137.426001,19.4107449 137.590999,19.2645113 137.717,19.0854471 C137.843001,18.9063828 137.933,18.7109072 137.987,18.4990145 C138.041,18.2871218 138.068,18.0826932 138.068,17.8857225 L138.068,14.0000476 L138.932,14.0000476 L138.932,18.0200201 C138.932,18.3900862 138.869001,18.7258266 138.743,19.0272515 C138.616999,19.3286763 138.443001,19.5898077 138.221,19.8106537 C137.998999,20.0314996 137.738001,20.2016081 137.438,20.3209842 C137.137998,20.4403604 136.814002,20.5000476 136.466,20.5000476 C136.117998,20.5000476 135.794001,20.4403604 135.494,20.3209842 C135.193998,20.2016081 134.933001,20.0314996 134.711,19.8106537 C134.488999,19.5898077 134.315001,19.3286763 134.189,19.0272515 C134.062999,18.7258266 134,18.3900862 134,18.0200201 L134,14.0000476 L134.864,14.0000476 Z M141.278,14.0000476 L142.934,16.4972227 L144.572,14.0000476 L145.652,14.0000476 L143.528,17.0756126 L145.868,20.5000476 L144.734,20.5000476 L142.907,17.6815448 L141.071,20.5000476 L140,20.5000476 L142.313,17.0847934 L140.171,14.0000476 L141.278,14.0000476 Z M127.489,17.3997766 C127.362999,17.4702377 127.235501,17.5465693 127.1065,17.6287739 C126.977499,17.7109785 126.862001,17.8019893 126.76,17.9018091 C126.657999,18.0016289 126.5755,18.1146585 126.5125,18.2409013 C126.4495,18.367144 126.418,18.5095319 126.418,18.6680693 C126.418,18.8207349 126.451,18.9631228 126.517,19.0952373 C126.583,19.2273518 126.672999,19.3433172 126.787,19.443137 C126.901001,19.5429569 127.028499,19.6207564 127.1695,19.6765381 C127.310501,19.7323198 127.458999,19.7602102 127.615,19.7602102 C127.771001,19.7602102 127.916499,19.7367235 128.0515,19.6897495 C128.186501,19.6427755 128.312499,19.5825909 128.4295,19.5091939 C128.546501,19.435797 128.6545,19.3521258 128.7535,19.2581777 C128.8525,19.1642296 128.944,19.0673471 129.028,18.9675273 L127.489,17.3997766 Z M109.16,14.8263188 L107.864,14.8263188 L107.864,19.6737764 L108.953,19.6737764 C109.319002,19.6737764 109.665498,19.6232826 109.9925,19.5222934 C110.319502,19.4213042 110.605999,19.2698226 110.852,19.0678442 C111.098001,18.8658658 111.292999,18.6133966 111.437,18.310429 C111.581001,18.0074613 111.653,17.6540044 111.653,17.2500476 C111.653,17.0419486 111.62,16.7986601 111.554,16.5201747 C111.488,16.2416893 111.363501,15.9769792 111.1805,15.7260363 C110.997499,15.4750934 110.744002,15.2624072 110.42,15.0879713 C110.095998,14.9135354 109.676003,14.8263188 109.16,14.8263188 Z M115.687,16.65065 C115.488999,16.65065 115.307501,16.6883002 115.1425,16.7636018 C114.977499,16.8389034 114.838001,16.936794 114.724,17.0572765 C114.609999,17.177759 114.5215,17.3117939 114.4585,17.459385 C114.3955,17.6069761 114.364,17.7530589 114.364,17.897638 L116.92,17.897638 C116.914,17.7169142 116.8855,17.5512532 116.8345,17.40065 C116.7835,17.2500468 116.707001,17.1190241 116.605,17.0075777 C116.502999,16.8961314 116.375501,16.8087829 116.2225,16.7455295 C116.069499,16.6822762 115.891001,16.65065 115.687,16.65065 Z M127.912,14.739885 C127.683999,14.739885 127.486001,14.8030054 127.318,14.9292481 C127.149999,15.0554909 127.066,15.2360446 127.066,15.4709148 C127.066,15.5766064 127.0855,15.6764247 127.1245,15.7703728 C127.1635,15.8643209 127.2145,15.9553317 127.2775,16.043408 C127.3405,16.1314844 127.408,16.2136877 127.48,16.2900205 C127.552,16.3663533 127.624,16.4397491 127.696,16.5102102 C127.804001,16.4514927 127.916499,16.3869043 128.0335,16.3164433 C128.150501,16.2459822 128.257,16.1667147 128.353,16.0786384 C128.449,15.9905621 128.5285,15.8922116 128.5915,15.7835842 C128.6545,15.6749567 128.686,15.5501838 128.686,15.4092617 C128.686,15.2037503 128.614001,15.0408115 128.47,14.9204406 C128.325999,14.8000696 128.140001,14.739885 127.912,14.739885 Z M145.5,4.7601442e-05 L145.5,0.500047601 C145.5,1.05233235 145.052285,1.5000476 144.5,1.5000476 L142.5,1.5000476 C141.621622,1.5000476 141,2.07147617 141,2.7500476 C141,3.42861903 141.621622,4.0000476 142.5,4.0000476 L143,4.0000476 C144.581081,4.0000476 146,5.05361903 146,6.7500476 C146,8.44647617 144.594595,9.5000476 143.189189,9.5000476 L139.5,9.5000476 L139.5,9.0000476 C139.5,8.44776285 139.947715,8.0000476 140.5,8.0000476 L143,8.0000476 C143.702703,8.0000476 144.5,7.59826189 144.5,6.7500476 C144.5,5.90183332 143.702703,5.5000476 143,5.5000476 L142.5,5.5000476 C140.947632,5.5000476 139.5,4.44647617 139.5,2.7500476 C139.5,1.05361903 140.918919,4.7601442e-05 142.5,4.7601442e-05 L145.5,4.7601442e-05 Z M132.75,4.76014414e-05 C135.373353,4.76014414e-05 137.5,2.12669504 137.5,4.7500476 C137.5,4.83410334 137.497817,4.91764914 137.493504,5.00063138 L137.5,5.0000476 L137.5,9.5000476 L137,9.5000476 C136.447715,9.5000476 136,9.05233235 136,8.5000476 L136.001134,8.21310496 C135.151364,9.01118607 134.007772,9.5000476 132.75,9.5000476 C130.126647,9.5000476 128,7.37340016 128,4.7500476 C128,2.12669504 130.126647,4.76014414e-05 132.75,4.76014414e-05 Z M115.5,0 C116.616386,-2.05076693e-16 117.610693,0.522680299 118.251557,1.3366768 C118.889307,0.522680299 119.883614,7.18036476e-16 121,0 L122.5,0 C124.432997,-3.55085719e-16 126,1.56700338 126,3.5 L126,8.5 C126,9.05228475 125.552285,9.5 125,9.5 L124.5,9.5 L124.5,3.5000476 C124.5,2.3954781 123.604569,1.5000476 122.5,1.5000476 L121,1.5000476 C119.945638,1.5000476 119.081835,2.31592539 119.005486,3.35078526 L119,3.5 L119,8.5 C119,9.01283584 118.61396,9.43550716 118.116621,9.49327227 L118,9.5 L117.5,9.5 L117.5,3.5000476 C117.5,2.3954781 116.604569,1.5000476 115.5,1.5000476 L114,1.5000476 C112.895431,1.5000476 112,2.3954781 112,3.5000476 L112,8.5 C112,9.05228475 111.552285,9.5 111,9.5 L110.5,9.5 L110.5,3.5 C110.5,1.56700338 112.067003,1.24326414e-15 114,0 L115.5,0 Z M107.5,4.76014322e-05 C108.052285,4.76014322e-05 108.5,0.447762852 108.5,1.0000476 L108.5,8.5000476 C108.5,9.05233235 108.052285,9.5000476 107.5,9.5000476 L107,9.5000476 L107,4.76014322e-05 L107.5,4.76014322e-05 Z M132.75,1.5000476 C130.955075,1.5000476 129.5,2.95512216 129.5,4.7500476 C129.5,6.54497304 130.955075,8.0000476 132.75,8.0000476 C134.544925,8.0000476 136,6.54497304 136,4.7500476 C136,2.95512216 134.544925,1.5000476 132.75,1.5000476 Z" id="Combined-Shape"></path>
                            <text id="Yes,-website-is-made" font-family="Barlow-Regular, Barlow" font-size="9" font-weight="normal" line-spacing="16">
                                <tspan x="0.724" y="9.5000476">Yes, website is made in:</tspan>
                            </text>
                        </g>
                        <path d="M107.55585,0.579898987 L107.923948,0.579898987 C108.290518,0.579898987 108.465359,0.626311793 108.628322,0.713465339 C108.791285,0.800618886 108.919179,0.928513173 109.006333,1.09147614 C109.093486,1.2544391 109.139899,1.42928045 109.139899,1.79585042 L109.139899,2.16394755 C109.139899,2.53051752 109.093486,2.70535888 109.006333,2.86832184 C108.919179,3.0312848 108.791285,3.15917909 108.628322,3.24633264 C108.465359,3.33348618 108.290518,3.37989899 107.923948,3.37989899 L107.55585,3.37989899 C107.18928,3.37989899 107.014439,3.33348618 106.851476,3.24633264 C106.688513,3.15917909 106.560619,3.0312848 106.473465,2.86832184 C106.386312,2.70535888 106.339899,2.53051752 106.339899,2.16394755 L106.339899,1.79585042 C106.339899,1.42928045 106.386312,1.2544391 106.473465,1.09147614 C106.560619,0.928513173 106.688513,0.800618886 106.851476,0.713465339 C107.014439,0.626311793 107.18928,0.579898987 107.55585,0.579898987 Z" id="Rectangle" fill="#FF0000" transform="translate(107.739899, 1.979899) rotate(-45.000000) translate(-107.739899, -1.979899) "></path>
                    </g>
                </g>
            </g>
        </g>
    </g>
</svg>