<?xml version="1.0" encoding="UTF-8"?>
<svg width="15px" height="14px" viewBox="0 0 15 14" version="1.1" xmlns="http://www.w3.org/2000/svg" xmlns:xlink="http://www.w3.org/1999/xlink">
    <title>360C9608-31E4-422C-B7F7-CC8553B6ABB9</title>
    <g id="desktop" stroke="none" stroke-width="1" fill="none" fill-rule="evenodd">
        <g id="paslaugos" transform="translate(-268.000000, -3309.000000)" fill="#FFFFFF" fill-rule="nonzero">
            <g id="Group-18" transform="translate(0.000000, 3044.000000)">
                <g id="Group-20" transform="translate(250.000000, 247.000000)">
                    <g id="instagram" transform="translate(18.000000, 18.000000)">
                        <path d="M7.00546875,3.41171875 C5.01796875,3.41171875 3.41484375,5.01484375 3.41484375,7.00234375 C3.41484375,8.98984375 5.01796875,10.5929688 7.00546875,10.5929688 C8.99296875,10.5929688 10.5960937,8.98984375 10.5960937,7.00234375 C10.5960937,5.01484375 8.99296875,3.41171875 7.00546875,3.41171875 Z M7.00546875,9.33671875 C5.72109375,9.33671875 4.67109375,8.28984375 4.67109375,7.00234375 C4.67109375,5.71484375 5.71796875,4.66796875 7.00546875,4.66796875 C8.29296875,4.66796875 9.33984375,5.71484375 9.33984375,7.00234375 C9.33984375,8.28984375 8.28984375,9.33671875 7.00546875,9.33671875 L7.00546875,9.33671875 Z M11.5804688,3.26484375 C11.5804688,3.73046875 11.2054688,4.10234375 10.7429688,4.10234375 C10.2773438,4.10234375 9.90546875,3.72734375 9.90546875,3.26484375 C9.90546875,2.80234375 10.2804688,2.42734375 10.7429688,2.42734375 C11.2054688,2.42734375 11.5804688,2.80234375 11.5804688,3.26484375 Z M13.9585938,4.11484375 C13.9054688,2.99296875 13.6492188,1.99921875 12.8273438,1.18046875 C12.0085938,0.36171875 11.0148438,0.10546875 9.89296875,0.04921875 C8.73671875,-0.01640625 5.27109375,-0.01640625 4.11484375,0.04921875 C2.99609375,0.10234375 2.00234375,0.35859375 1.18046875,1.17734375 C0.35859375,1.99609375 0.10546875,2.98984375 0.04921875,4.11171875 C-0.01640625,5.26796875 -0.01640625,8.73359375 0.04921875,9.88984375 C0.10234375,11.0117187 0.35859375,12.0054687 1.18046875,12.8242187 C2.00234375,13.6429687 2.99296875,13.8992187 4.11484375,13.9554687 C5.27109375,14.0210937 8.73671875,14.0210937 9.89296875,13.9554687 C11.0148437,13.9023437 12.0085937,13.6460937 12.8273437,12.8242187 C13.6460937,12.0054688 13.9023437,11.0117188 13.9585937,9.88984375 C14.0242187,8.73359375 14.0242187,5.27109375 13.9585938,4.11484375 Z M12.4648437,11.1304687 C12.2210937,11.7429687 11.7492187,12.2148437 11.1335937,12.4617187 C10.2117187,12.8273437 8.02421875,12.7429687 7.00546875,12.7429687 C5.98671875,12.7429687 3.79609375,12.8242187 2.87734375,12.4617187 C2.26484375,12.2179687 1.79296875,11.7460937 1.54609375,11.1304687 C1.18046875,10.2085937 1.26484375,8.02109375 1.26484375,7.00234375 C1.26484375,5.98359375 1.18359375,3.79296875 1.54609375,2.87421875 C1.78984375,2.26171875 2.26171875,1.78984375 2.87734375,1.54296875 C3.79921875,1.17734375 5.98671875,1.26171875 7.00546875,1.26171875 C8.02421875,1.26171875 10.2148437,1.18046875 11.1335937,1.54296875 C11.7460937,1.78671875 12.2179687,2.25859375 12.4648437,2.87421875 C12.8304687,3.79609375 12.7460937,5.98359375 12.7460937,7.00234375 C12.7460937,8.02109375 12.8304687,10.2117187 12.4648437,11.1304687 Z" id="Shape"></path>
                    </g>
                </g>
            </g>
        </g>
    </g>
</svg>