<?xml version="1.0" encoding="UTF-8"?>
<svg width="80px" height="60px" viewBox="0 0 80 60" version="1.1" xmlns="http://www.w3.org/2000/svg" xmlns:xlink="http://www.w3.org/1999/xlink">
    <title>F0DAE5A9-353D-4546-A19D-9C4A809137A8</title>
    <g id="Page-1" stroke="none" stroke-width="1" fill="none" fill-rule="evenodd">
        <g id="landing" transform="translate(-498.000000, -2293.000000)" fill="#FFFFFF" fill-rule="nonzero">
            <g id="Group-11" transform="translate(120.000000, 2007.000000)">
                <g id="laptop-medical" transform="translate(378.000000, 286.000000)">
                    <path d="M78,42 L72,42 L72,8 C71.9951776,3.58372105 68.416279,0.00482239768 64,0 L16,0 C11.583721,0.00482239768 8.0048224,3.58372105 8,8 L8,42 L2,42 C0.8954305,42 0,42.8954305 0,44 L0,50 C0.00619985569,55.5202774 4.47972261,59.9938001 10,60 L70,60 C75.5202774,59.9938001 79.9938001,55.5202774 80,50 L80,44 C80,42.8954305 79.1045695,42 78,42 L78,42 Z M12,8 C12,5.790861 13.790861,4 16,4 L64,4 C66.209139,4 68,5.790861 68,8 L68,42 L48.89125,42 C48.38375,42 48.01625,42.39125 47.90125,42.88625 C47.4873858,44.707759 45.8679342,46 44,46 L36,46 C34.1320658,46 32.5126142,44.707759 32.09875,42.88625 C31.98625,42.38625 31.61625,42 31.10875,42 L12,42 L12,8 Z M76,50 C75.9965551,53.3122805 73.3122805,55.9965551 70,56 L10,56 C6.68771948,55.9965551 4.00344491,53.3122805 4,50 L4,46 L28.34375,46 C29.1931189,48.3956494 31.4582374,49.9975011 34,50 L46,50 C48.5424762,49.9997439 50.8087579,48.3970696 51.65625,46 L76,46 L76,50 Z M36,35 C36,35.5522847 36.4477153,36 37,36 L43,36 C43.5522847,36 44,35.5522847 44,35 L44,28 L51,28 C51.5522847,28 52,27.5522847 52,27 L52,21 C52,20.4477153 51.5522847,20 51,20 L44,20 L44,13 C44,12.4477153 43.5522847,12 43,12 L37,12 C36.4477153,12 36,12.4477153 36,13 L36,20 L29,20 C28.4477153,20 28,20.4477153 28,21 L28,27 C28,27.5522847 28.4477153,28 29,28 L36,28 L36,35 Z" id="Shape"></path>
                </g>
            </g>
        </g>
    </g>
</svg>