<?xml version="1.0" encoding="UTF-8"?>
<svg width="167px" height="39px" viewBox="0 0 167 39" version="1.1" xmlns="http://www.w3.org/2000/svg" xmlns:xlink="http://www.w3.org/1999/xlink">
    <title>F7F60FB9-25EB-4F39-A925-E943EED372EE</title>
    <g id="Page-1" stroke="none" stroke-width="1" fill="none" fill-rule="evenodd" opacity="0.4">
        <g id="landing" transform="translate(-484.000000, -4715.000000)" fill="#002949">
            <g id="Group-16" transform="translate(0.000000, 4448.000000)">
                <g id="Group-13" transform="translate(425.000000, 187.000000)">
                    <g id="logo-2.1" transform="translate(59.000000, 80.000000)">
                        <g id="slogan" transform="translate(0.000000, 30.785000)" fill-rule="nonzero">
                            <path d="M2.768,5.84 L2.768,1.152 L4.544,1.152 L4.544,0.24 L0,0.24 L0,1.152 L1.776,1.152 L1.776,5.84 L2.768,5.84 Z M5.526,5.928 C6.166,5.928 6.606,5.664 6.894,5.32 L6.894,5.84 L7.854,5.84 L7.854,3.336 C7.854,2.208 7.246,1.552 5.998,1.552 C5.31,1.552 4.854,1.696 4.39,1.904 L4.654,2.68 C5.038,2.52 5.39,2.416 5.862,2.416 C6.534,2.416 6.902,2.736 6.902,3.32 L6.902,3.4 C6.574,3.296 6.246,3.224 5.734,3.224 C4.75,3.224 4.022,3.672 4.022,4.608 L4.022,4.624 C4.022,5.472 4.726,5.928 5.526,5.928 Z M5.798,5.2 C5.342,5.2 4.982,4.976 4.982,4.576 L4.982,4.56 C4.982,4.152 5.342,3.904 5.95,3.904 C6.326,3.904 6.67,3.976 6.918,4.072 L6.918,4.312 C6.918,4.84 6.438,5.2 5.798,5.2 Z M9.724,5.84 L9.724,4.232 C9.724,3.112 10.316,2.56 11.164,2.56 L11.22,2.56 L11.22,1.536 C10.476,1.504 9.988,1.936 9.724,2.568 L9.724,1.616 L8.756,1.616 L8.756,5.84 L9.724,5.84 Z M12.778,7.12 L12.778,5.184 C13.074,5.576 13.514,5.928 14.21,5.928 C15.218,5.928 16.178,5.136 16.178,3.736 L16.178,3.72 C16.178,2.32 15.21,1.528 14.21,1.528 C13.53,1.528 13.09,1.88 12.778,2.32 L12.778,1.616 L11.81,1.616 L11.81,7.12 L12.778,7.12 Z M13.986,5.088 C13.33,5.088 12.754,4.552 12.754,3.736 L12.754,3.72 C12.754,2.912 13.33,2.368 13.986,2.368 C14.642,2.368 15.194,2.904 15.194,3.72 L15.194,3.736 C15.194,4.568 14.65,5.088 13.986,5.088 Z M18.336,5.912 C18.696,5.912 18.968,5.832 19.208,5.696 L19.208,4.904 C19.016,5 18.824,5.048 18.608,5.048 C18.28,5.048 18.088,4.896 18.088,4.52 L18.088,2.448 L19.224,2.448 L19.224,1.616 L18.088,1.616 L18.088,0.456 L17.12,0.456 L17.12,1.616 L16.584,1.616 L16.584,2.448 L17.12,2.448 L17.12,4.672 C17.12,5.6 17.624,5.912 18.336,5.912 Z M21.166,5.928 C21.806,5.928 22.246,5.664 22.534,5.32 L22.534,5.84 L23.494,5.84 L23.494,3.336 C23.494,2.208 22.886,1.552 21.638,1.552 C20.95,1.552 20.494,1.696 20.03,1.904 L20.294,2.68 C20.678,2.52 21.03,2.416 21.502,2.416 C22.174,2.416 22.542,2.736 22.542,3.32 L22.542,3.4 C22.214,3.296 21.886,3.224 21.374,3.224 C20.39,3.224 19.662,3.672 19.662,4.608 L19.662,4.624 C19.662,5.472 20.366,5.928 21.166,5.928 Z M21.438,5.2 C20.982,5.2 20.622,4.976 20.622,4.576 L20.622,4.56 C20.622,4.152 20.982,3.904 21.59,3.904 C21.966,3.904 22.31,3.976 22.558,4.072 L22.558,4.312 C22.558,4.84 22.078,5.2 21.438,5.2 Z M25.852,5.928 C26.508,5.928 26.9,5.584 27.172,5.184 L27.172,5.84 L28.14,5.84 L28.14,1.616 L27.172,1.616 L27.172,4 C27.172,4.656 26.78,5.048 26.22,5.048 C25.644,5.048 25.316,4.672 25.316,4.016 L25.316,1.616 L24.348,1.616 L24.348,4.304 C24.348,5.288 24.9,5.928 25.852,5.928 Z M30.522,5.912 C30.882,5.912 31.154,5.832 31.394,5.696 L31.394,4.904 C31.202,5 31.01,5.048 30.794,5.048 C30.466,5.048 30.274,4.896 30.274,4.52 L30.274,2.448 L31.41,2.448 L31.41,1.616 L30.274,1.616 L30.274,0.456 L29.306,0.456 L29.306,1.616 L28.77,1.616 L28.77,2.448 L29.306,2.448 L29.306,4.672 C29.306,5.6 29.81,5.912 30.522,5.912 Z M33.192,0.968 L33.192,0.048 L32.152,0.048 L32.152,0.968 L33.192,0.968 Z M33.16,5.84 L33.16,1.616 L32.192,1.616 L32.192,5.84 L33.16,5.84 Z M35.142,5.84 L35.142,3.456 C35.142,2.8 35.534,2.408 36.094,2.408 C36.67,2.408 36.998,2.784 36.998,3.44 L36.998,5.84 L37.966,5.84 L37.966,3.152 C37.966,2.168 37.414,1.528 36.462,1.528 C35.806,1.528 35.414,1.872 35.142,2.272 L35.142,1.616 L34.174,1.616 L34.174,5.84 L35.142,5.84 Z M41.204,1.08 L41.204,0.128 L40.196,0.128 L40.196,1.08 L41.204,1.08 Z M40.82,5.936 C41.596,5.936 42.148,5.624 42.548,5.144 L41.98,4.64 C41.644,4.968 41.308,5.144 40.836,5.144 C40.212,5.144 39.724,4.76 39.62,4.072 L42.724,4.072 C42.732,3.976 42.74,3.888 42.74,3.8 C42.74,2.584 42.06,1.528 40.716,1.528 C39.508,1.528 38.652,2.52 38.652,3.728 L38.652,3.744 C38.652,5.048 39.596,5.936 40.82,5.936 Z M41.78,3.432 L39.612,3.432 C39.7,2.776 40.116,2.32 40.708,2.32 C41.348,2.32 41.716,2.808 41.78,3.432 Z M47.064,5.92 C47.944,5.92 48.632,5.48 48.632,4.592 L48.632,4.576 C48.632,3.816 47.936,3.536 47.32,3.344 C46.824,3.184 46.368,3.056 46.368,2.752 L46.368,2.736 C46.368,2.488 46.584,2.312 46.96,2.312 C47.312,2.312 47.744,2.464 48.152,2.712 L48.536,2.024 C48.088,1.728 47.512,1.544 46.984,1.544 C46.144,1.544 45.48,2.032 45.48,2.832 L45.48,2.848 C45.48,3.656 46.176,3.912 46.8,4.088 C47.296,4.24 47.744,4.352 47.744,4.68 L47.744,4.696 C47.744,4.976 47.504,5.152 47.088,5.152 C46.656,5.152 46.16,4.976 45.704,4.632 L45.272,5.288 C45.8,5.704 46.464,5.92 47.064,5.92 Z M50.334,5.84 L50.334,4.632 L50.926,4.016 L52.198,5.84 L53.318,5.84 L51.582,3.336 L53.262,1.616 L52.086,1.616 L50.334,3.488 L50.334,1.33226763e-15 L49.366,1.33226763e-15 L49.366,5.84 L50.334,5.84 Z M55.148,5.928 C55.804,5.928 56.196,5.584 56.468,5.184 L56.468,5.84 L57.436,5.84 L57.436,1.616 L56.468,1.616 L56.468,4 C56.468,4.656 56.076,5.048 55.516,5.048 C54.94,5.048 54.612,4.672 54.612,4.016 L54.612,1.616 L53.644,1.616 L53.644,4.304 C53.644,5.288 54.196,5.928 55.148,5.928 Z M60.802,5.928 C61.81,5.928 62.77,5.136 62.77,3.736 L62.77,3.72 C62.77,2.32 61.802,1.528 60.802,1.528 C60.122,1.528 59.682,1.88 59.37,2.32 L59.37,1.33226763e-15 L58.402,1.33226763e-15 L58.402,5.84 L59.37,5.84 L59.37,5.184 C59.666,5.576 60.106,5.928 60.802,5.928 Z M60.578,5.088 C59.922,5.088 59.346,4.552 59.346,3.736 L59.346,3.72 C59.346,2.912 59.922,2.368 60.578,2.368 C61.234,2.368 61.786,2.904 61.786,3.72 L61.786,3.736 C61.786,4.568 61.242,5.088 60.578,5.088 Z M64.568,0.968 L64.568,0.048 L63.528,0.048 L63.528,0.968 L64.568,0.968 Z M64.536,5.84 L64.536,1.616 L63.568,1.616 L63.568,5.84 L64.536,5.84 Z M67.558,5.936 C68.862,5.936 69.822,4.936 69.822,3.736 L69.822,3.72 C69.822,2.512 68.87,1.528 67.574,1.528 C66.278,1.528 65.318,2.528 65.318,3.736 L65.318,3.752 C65.318,4.952 66.27,5.936 67.558,5.936 Z M67.574,5.096 C66.822,5.096 66.286,4.472 66.286,3.736 L66.286,3.72 C66.286,2.984 66.782,2.376 67.558,2.376 C68.318,2.376 68.854,2.992 68.854,3.736 L68.854,3.752 C68.854,4.48 68.358,5.096 67.574,5.096 Z M72.004,5.92 C72.884,5.92 73.572,5.48 73.572,4.592 L73.572,4.576 C73.572,3.816 72.876,3.536 72.26,3.344 C71.764,3.184 71.308,3.056 71.308,2.752 L71.308,2.736 C71.308,2.488 71.524,2.312 71.9,2.312 C72.252,2.312 72.684,2.464 73.092,2.712 L73.476,2.024 C73.028,1.728 72.452,1.544 71.924,1.544 C71.084,1.544 70.42,2.032 70.42,2.832 L70.42,2.848 C70.42,3.656 71.116,3.912 71.74,4.088 C72.236,4.24 72.684,4.352 72.684,4.68 L72.684,4.696 C72.684,4.976 72.444,5.152 72.028,5.152 C71.596,5.152 71.1,4.976 70.644,4.632 L70.212,5.288 C70.74,5.704 71.404,5.92 72.004,5.92 Z M75.362,0.968 L75.362,0.048 L74.322,0.048 L74.322,0.968 L75.362,0.968 Z M75.33,5.84 L75.33,1.616 L74.362,1.616 L74.362,5.84 L75.33,5.84 Z M78.352,5.936 C79.656,5.936 80.616,4.936 80.616,3.736 L80.616,3.72 C80.616,2.512 79.664,1.528 78.368,1.528 C77.072,1.528 76.112,2.528 76.112,3.736 L76.112,3.752 C76.112,4.952 77.064,5.936 78.352,5.936 Z M78.368,5.096 C77.616,5.096 77.08,4.472 77.08,3.736 L77.08,3.72 C77.08,2.984 77.576,2.376 78.352,2.376 C79.112,2.376 79.648,2.992 79.648,3.736 L79.648,3.752 C79.648,4.48 79.152,5.096 78.368,5.096 Z M82.798,5.92 C83.678,5.92 84.366,5.48 84.366,4.592 L84.366,4.576 C84.366,3.816 83.67,3.536 83.054,3.344 C82.558,3.184 82.102,3.056 82.102,2.752 L82.102,2.736 C82.102,2.488 82.318,2.312 82.694,2.312 C83.046,2.312 83.478,2.464 83.886,2.712 L84.27,2.024 C83.822,1.728 83.246,1.544 82.718,1.544 C81.878,1.544 81.214,2.032 81.214,2.832 L81.214,2.848 C81.214,3.656 81.91,3.912 82.534,4.088 C83.03,4.24 83.478,4.352 83.478,4.68 L83.478,4.696 C83.478,4.976 83.238,5.152 82.822,5.152 C82.39,5.152 81.894,4.976 81.438,4.632 L81.006,5.288 C81.534,5.704 82.198,5.92 82.798,5.92 Z M88.218,5.84 L88.218,3.464 C88.218,2.808 88.586,2.408 89.122,2.408 C89.658,2.408 89.978,2.776 89.978,3.432 L89.978,5.84 L90.946,5.84 L90.946,3.456 C90.946,2.776 91.322,2.408 91.85,2.408 C92.394,2.408 92.706,2.768 92.706,3.44 L92.706,5.84 L93.674,5.84 L93.674,3.144 C93.674,2.112 93.114,1.528 92.194,1.528 C91.554,1.528 91.106,1.824 90.762,2.272 C90.538,1.824 90.114,1.528 89.506,1.528 C88.858,1.528 88.49,1.88 88.218,2.256 L88.218,1.616 L87.25,1.616 L87.25,5.84 L88.218,5.84 Z M96.536,5.936 C97.312,5.936 97.864,5.624 98.264,5.144 L97.696,4.64 C97.36,4.968 97.024,5.144 96.552,5.144 C95.928,5.144 95.44,4.76 95.336,4.072 L98.44,4.072 C98.448,3.976 98.456,3.888 98.456,3.8 C98.456,2.584 97.776,1.528 96.432,1.528 C95.224,1.528 94.368,2.52 94.368,3.728 L94.368,3.744 C94.368,5.048 95.312,5.936 96.536,5.936 Z M97.496,3.432 L95.328,3.432 C95.416,2.776 95.832,2.32 96.424,2.32 C97.064,2.32 97.432,2.808 97.496,3.432 Z M100.926,5.928 C101.614,5.928 102.054,5.576 102.366,5.136 L102.366,5.84 L103.334,5.84 L103.334,1.33226763e-15 L102.366,1.33226763e-15 L102.366,2.272 C102.062,1.88 101.622,1.528 100.926,1.528 C99.918,1.528 98.966,2.32 98.966,3.72 L98.966,3.736 C98.966,5.136 99.934,5.928 100.926,5.928 Z M101.158,5.088 C100.502,5.088 99.942,4.552 99.942,3.736 L99.942,3.72 C99.942,2.88 100.494,2.368 101.158,2.368 C101.806,2.368 102.382,2.904 102.382,3.72 L102.382,3.736 C102.382,4.544 101.806,5.088 101.158,5.088 Z M105.348,0.968 L105.348,0.048 L104.308,0.048 L104.308,0.968 L105.348,0.968 Z M105.316,5.84 L105.316,1.616 L104.348,1.616 L104.348,5.84 L105.316,5.84 Z M108.282,5.936 C109.106,5.936 109.594,5.608 110.01,5.144 L109.426,4.568 C109.122,4.88 108.786,5.096 108.33,5.096 C107.586,5.096 107.066,4.488 107.066,3.736 L107.066,3.72 C107.066,2.984 107.578,2.376 108.282,2.376 C108.77,2.376 109.082,2.592 109.378,2.904 L109.978,2.256 C109.586,1.824 109.09,1.528 108.29,1.528 C107.026,1.528 106.098,2.536 106.098,3.736 L106.098,3.752 C106.098,4.952 107.026,5.936 108.282,5.936 Z M111.704,0.968 L111.704,0.048 L110.664,0.048 L110.664,0.968 L111.704,0.968 Z M111.672,5.84 L111.672,1.616 L110.704,1.616 L110.704,5.84 L111.672,5.84 Z M113.654,5.84 L113.654,3.456 C113.654,2.8 114.046,2.408 114.606,2.408 C115.182,2.408 115.51,2.784 115.51,3.44 L115.51,5.84 L116.478,5.84 L116.478,3.152 C116.478,2.168 115.926,1.528 114.974,1.528 C114.318,1.528 113.926,1.872 113.654,2.272 L113.654,1.616 L112.686,1.616 L112.686,5.84 L113.654,5.84 Z M119.404,5.936 C120.708,5.936 121.668,4.936 121.668,3.736 L121.668,3.72 C121.668,2.512 120.716,1.528 119.42,1.528 C118.124,1.528 117.164,2.528 117.164,3.736 L117.164,3.752 C117.164,4.952 118.116,5.936 119.404,5.936 Z M119.42,5.096 C118.668,5.096 118.132,4.472 118.132,3.736 L118.132,3.72 C118.132,2.984 118.628,2.376 119.404,2.376 C120.164,2.376 120.7,2.992 120.7,3.736 L120.7,3.752 C120.7,4.48 120.204,5.096 119.42,5.096 Z M123.85,5.92 C124.73,5.92 125.418,5.48 125.418,4.592 L125.418,4.576 C125.418,3.816 124.722,3.536 124.106,3.344 C123.61,3.184 123.154,3.056 123.154,2.752 L123.154,2.736 C123.154,2.488 123.37,2.312 123.746,2.312 C124.098,2.312 124.53,2.464 124.938,2.712 L125.322,2.024 C124.874,1.728 124.298,1.544 123.77,1.544 C122.93,1.544 122.266,2.032 122.266,2.832 L122.266,2.848 C122.266,3.656 122.962,3.912 123.586,4.088 C124.082,4.24 124.53,4.352 124.53,4.68 L124.53,4.696 C124.53,4.976 124.29,5.152 123.874,5.152 C123.442,5.152 122.946,4.976 122.49,4.632 L122.058,5.288 C122.586,5.704 123.25,5.92 123.85,5.92 Z M129.518,5.928 C130.158,5.928 130.598,5.664 130.886,5.32 L130.886,5.84 L131.846,5.84 L131.846,3.336 C131.846,2.208 131.238,1.552 129.99,1.552 C129.302,1.552 128.846,1.696 128.382,1.904 L128.646,2.68 C129.03,2.52 129.382,2.416 129.854,2.416 C130.526,2.416 130.894,2.736 130.894,3.32 L130.894,3.4 C130.566,3.296 130.238,3.224 129.726,3.224 C128.742,3.224 128.014,3.672 128.014,4.608 L128.014,4.624 C128.014,5.472 128.718,5.928 129.518,5.928 Z M129.79,5.2 C129.334,5.2 128.974,4.976 128.974,4.576 L128.974,4.56 C128.974,4.152 129.334,3.904 129.942,3.904 C130.318,3.904 130.662,3.976 130.91,4.072 L130.91,4.312 C130.91,4.84 130.43,5.2 129.79,5.2 Z M133.716,5.84 L133.716,4.632 L134.308,4.016 L135.58,5.84 L136.7,5.84 L134.964,3.336 L136.644,1.616 L135.468,1.616 L133.716,3.488 L133.716,1.33226763e-15 L132.748,1.33226763e-15 L132.748,5.84 L133.716,5.84 Z M138.29,5.928 C138.93,5.928 139.37,5.664 139.658,5.32 L139.658,5.84 L140.618,5.84 L140.618,3.336 C140.618,2.208 140.01,1.552 138.762,1.552 C138.074,1.552 137.618,1.696 137.154,1.904 L137.418,2.68 C137.802,2.52 138.154,2.416 138.626,2.416 C139.298,2.416 139.666,2.736 139.666,3.32 L139.666,3.4 C139.338,3.296 139.01,3.224 138.498,3.224 C137.514,3.224 136.786,3.672 136.786,4.608 L136.786,4.624 C136.786,5.472 137.49,5.928 138.29,5.928 Z M138.562,5.2 C138.106,5.2 137.746,4.976 137.746,4.576 L137.746,4.56 C137.746,4.152 138.106,3.904 138.714,3.904 C139.09,3.904 139.434,3.976 139.682,4.072 L139.682,4.312 C139.682,4.84 139.202,5.2 138.562,5.2 Z M143.264,5.928 C143.952,5.928 144.392,5.576 144.704,5.136 L144.704,5.84 L145.672,5.84 L145.672,1.33226763e-15 L144.704,1.33226763e-15 L144.704,2.272 C144.4,1.88 143.96,1.528 143.264,1.528 C142.256,1.528 141.304,2.32 141.304,3.72 L141.304,3.736 C141.304,5.136 142.272,5.928 143.264,5.928 Z M143.496,5.088 C142.84,5.088 142.28,4.552 142.28,3.736 L142.28,3.72 C142.28,2.88 142.832,2.368 143.496,2.368 C144.144,2.368 144.72,2.904 144.72,3.72 L144.72,3.736 C144.72,4.544 144.144,5.088 143.496,5.088 Z M148.566,5.936 C149.342,5.936 149.894,5.624 150.294,5.144 L149.726,4.64 C149.39,4.968 149.054,5.144 148.582,5.144 C147.958,5.144 147.47,4.76 147.366,4.072 L150.47,4.072 C150.478,3.976 150.486,3.888 150.486,3.8 C150.486,2.584 149.806,1.528 148.462,1.528 C147.254,1.528 146.398,2.52 146.398,3.728 L146.398,3.744 C146.398,5.048 147.342,5.936 148.566,5.936 Z M149.526,3.432 L147.358,3.432 C147.446,2.776 147.862,2.32 148.454,2.32 C149.094,2.32 149.462,2.808 149.526,3.432 Z M152.18,5.84 L152.18,3.464 C152.18,2.808 152.548,2.408 153.084,2.408 C153.62,2.408 153.94,2.776 153.94,3.432 L153.94,5.84 L154.908,5.84 L154.908,3.456 C154.908,2.776 155.284,2.408 155.812,2.408 C156.356,2.408 156.668,2.768 156.668,3.44 L156.668,5.84 L157.636,5.84 L157.636,3.144 C157.636,2.112 157.076,1.528 156.156,1.528 C155.516,1.528 155.068,1.824 154.724,2.272 C154.5,1.824 154.076,1.528 153.468,1.528 C152.82,1.528 152.452,1.88 152.18,2.256 L152.18,1.616 L151.212,1.616 L151.212,5.84 L152.18,5.84 Z M159.618,0.968 L159.618,0.048 L158.578,0.048 L158.578,0.968 L159.618,0.968 Z M159.586,5.84 L159.586,1.616 L158.618,1.616 L158.618,5.84 L159.586,5.84 Z M161.656,0.968 L161.656,0.048 L160.616,0.048 L160.616,0.968 L161.656,0.968 Z M160.392,7.144 C161.184,7.144 161.624,6.752 161.624,5.896 L161.624,1.616 L160.656,1.616 L160.656,5.84 C160.656,6.208 160.472,6.352 160.2,6.352 C160.112,6.352 160.024,6.344 159.928,6.328 L159.928,7.104 C160.08,7.128 160.208,7.144 160.392,7.144 Z M163.854,5.928 C164.494,5.928 164.934,5.664 165.222,5.32 L165.222,5.84 L166.182,5.84 L166.182,3.336 C166.182,2.208 165.574,1.552 164.326,1.552 C163.638,1.552 163.182,1.696 162.718,1.904 L162.982,2.68 C163.366,2.52 163.718,2.416 164.19,2.416 C164.862,2.416 165.23,2.736 165.23,3.32 L165.23,3.4 C164.902,3.296 164.574,3.224 164.062,3.224 C163.078,3.224 162.35,3.672 162.35,4.608 L162.35,4.624 C162.35,5.472 163.054,5.928 163.854,5.928 Z M164.126,5.2 C163.67,5.2 163.31,4.976 163.31,4.576 L163.31,4.56 C163.31,4.152 163.67,3.904 164.278,3.904 C164.654,3.904 164.998,3.976 165.246,4.072 L165.246,4.312 C165.246,4.84 164.766,5.2 164.126,5.2 Z" id="Tarptautinėskubiosiosmedicinosakademija"></path>
                        </g>
                        <g id="symbol" fill-rule="nonzero">
                            <path d="M4,2 C4.5,6.5 8.5,13 16.5,13 C24.5,13 28.5,6.5 29,2 L33,2 L33,2 C32.5,8 27,17 16.5,17 C6,17 0.5,8 2.38742359e-12,2 L4,2 L4,2 Z M16.5,4.71089834e-12 C19.2614237,4.71089834e-12 21.5,2.23857625 21.5,5 C21.5,7.76142375 19.2614237,10 16.5,10 C13.7385763,10 11.5,7.76142375 11.5,5 C11.5,2.23857625 13.7385763,4.71089834e-12 16.5,4.71089834e-12 Z M18.5,15 L18.5,27 L14.5,27 L14.5,15 L18.5,15 Z" id="Combined-Shape"></path>
                        </g>
                        <g id="m" transform="translate(104.000000, 7.500000)">
                            <path d="M22.25,0 C26.5302068,-7.86261236e-16 30,3.46979319 30,7.75 L30,19.5 L26,19.5 L26,8.5 C26,6.01471863 23.9852814,4 21.5,4 C19.0147186,4 17,6.01471863 17,8.5 L17,8.5 L17,19.5 L13,19.5 L13,8.5 C13,6.01471863 10.9852814,4 8.5,4 C6.01471863,4 4,6.01471863 4,8.5 L4,8.5 L4,19.5 L0,19.5 L0,0.5 L4,0.5 L4.00020698,2.84402383 C5.42145597,1.10795999 7.58133902,4.44300813e-16 10,0 C12.49094,-4.5757826e-16 14.7074044,1.17516981 16.1252187,3.00133494 C17.5425956,1.17516981 19.75906,4.5757826e-16 22.25,0 Z" id="Combined-Shape"></path>
                        </g>
                        <g id="a" transform="translate(146.500000, 7.500000)">
                            <path d="M9.375,0 C11.3750035,0 13.2287323,0.651327406 14.7507738,1.76115314 L14.75,0.5 L18.75,0.5 L18.75,14.5 C18.75,15.0128358 19.1360402,15.4355072 19.6333789,15.4932723 L19.75,15.5 L19.75,19.5 L19.5331104,19.4953805 C17.8280888,19.4226106 16.3441818,18.4959679 15.4981188,17.1321816 C13.8567299,18.6075822 11.7160743,19.5 9.375,19.5 C4.19733047,19.5 0,15.1347763 0,9.75 C0,4.36522369 4.19733047,0 9.375,0 Z M9.5,4 C6.60050506,4 4.25,6.57436269 4.25,9.75 C4.25,12.9256373 6.60050506,15.5 9.5,15.5 C12.3994949,15.5 14.75,12.9256373 14.75,9.75 C14.75,6.57436269 12.3994949,4 9.5,4 Z" id="Combined-Shape"></path>
                        </g>
                        <g id="s" transform="translate(76.000000, 7.499995)" fill-rule="nonzero">
                            <path d="M7.75,19.5 C14.375,19.5 15.5,15.5 15.5,13.5 C15.5,6.5 4,10.5 4,6 C4,5 4.75,3.2500048 7.75,3.2500048 C10.75,3.2500048 11.5,5 11.5,6 C12.75,6 14.0833333,6 15.5,6 C15.5,4 13.5,3.55271368e-15 7.75,3.55271368e-15 C2,3.55271368e-15 0,4 0,6 C0,13 11.5,10.5 11.5,13.5 C11.5,14.7500048 10.75,16.2500048 7.75,16.2500048 C4.75,16.2500048 4,14.5 4,13.5 L0,13.5 C0,15.5 1.125,19.5 7.75,19.5 Z"></path>
                        </g>
                        <g id="t" transform="translate(51.500000, 2.000000)">
                            <path d="M0,9.5 L0,5.5 L2.5,5.5 L2.5,9.5 L6.5,9.5 L6.5,15.5 C6.5,18.5375661 8.96243388,21 12,21 L12,21 L12,25 L11.7295213,24.9962236 C6.60789389,24.8530394 2.5,20.6562447 2.5,15.5 L2.5,15.5 L2.5,9.5 L2.5,9.5 L0,9.5 Z M6.5,0 L6.5,5.5 L12,5.5 L12,9.5 L9.5,9.5 C5.63400675,9.5 2.5,6.36599325 2.5,2.5 L2.5,2.5 L2.5,0 L2.5,0 L6.5,0 Z" id="Combined-Shape"></path>
                        </g>
                    </g>
                </g>
            </g>
        </g>
    </g>
</svg>