<?xml version="1.0" encoding="UTF-8"?>
<svg width="12px" height="16px" viewBox="0 0 12 16" version="1.1" xmlns="http://www.w3.org/2000/svg" xmlns:xlink="http://www.w3.org/1999/xlink">
    <title>C69432A6-ADBD-4FF6-B4BF-402FF89626D2</title>
    <g id="Page-1" stroke="none" stroke-width="1" fill="none" fill-rule="evenodd">
        <g id="kontaktai" transform="translate(-974.000000, -348.000000)" fill="#002949" fill-rule="nonzero">
            <g id="Group-28" transform="translate(120.000000, 307.000000)">
                <g id="Group-23" transform="translate(813.000000, 0.000000)">
                    <g id="map-marker-alt" transform="translate(41.000000, 41.000000)">
                        <path d="M6,0 C2.68447005,0 0,2.6879388 0,6 C0,8.22241023 0.749719113,8.91691057 4.72722104,15.2945074 C5.31425257,16.2357266 6.68640949,16.2346016 7.27275352,15.2945074 C11.2523492,8.91356682 12,8.22197273 12,6 C12,2.68447005 9.31206701,0 6,0 Z M6.00000073,14.5000007 C2.01800098,8.11519143 1.50000073,7.71212874 1.50000073,6.00000073 C1.50000073,3.51472045 3.51472045,1.50000073 6.00000073,1.50000073 C8.48528536,1.50000073 10.5000007,3.51472045 10.5000007,6.00000073 C10.5000007,7.70478498 10.0260674,8.04453515 6.00000073,14.5000007 Z M3.5000017,6.0000017 C3.5000017,4.61928349 4.61928349,3.5000017 6.0000017,3.5000017 C7.38072232,3.5000017 8.5000017,4.61928349 8.5000017,6.0000017 C8.5000017,7.38072232 7.38072232,8.5000017 6.0000017,8.5000017 C4.61928349,8.5000017 3.5000017,7.38072232 3.5000017,6.0000017 Z" id="Shape"></path>
                    </g>
                </g>
            </g>
        </g>
    </g>
</svg>