<?xml version="1.0" encoding="UTF-8"?>
<svg width="20px" height="14px" viewBox="0 0 20 14" version="1.1" xmlns="http://www.w3.org/2000/svg" xmlns:xlink="http://www.w3.org/1999/xlink">
    <title>8E2A6563-CAEC-45BE-BA39-966C3ACF8924</title>
    <g id="Desktop-v2" stroke="none" stroke-width="1" fill="none" fill-rule="evenodd">
        <g id="mokymai" transform="translate(-857.000000, -228.000000)" fill="#000000" fill-rule="nonzero">
            <g id="Group-10" transform="translate(120.000000, 130.000000)">
                <g id="Group-34" transform="translate(711.000000, 50.000000)">
                    <g id="Group-33" transform="translate(20.000000, 20.000000)">
                        <g id="money-bill-wave-alt" transform="translate(6.000000, 28.000000)">
                            <path d="M10,4.0171875 C8.619375,4.0171875 7.5,5.3659375 7.5,7.03 C7.5,8.69375 8.6190625,10.0428125 10,10.0428125 C11.3803125,10.0428125 12.5,8.694375 12.5,7.03 C12.5,5.3659375 11.380625,4.0171875 10,4.0171875 Z M19.41125,0.701875 C18.1990625,0.1934375 16.9859375,0 15.7734375,0 C11.924375,-0.0003125 8.075625,1.948125 4.2265625,1.948125 C3.26125,1.948125 2.2965625,1.825625 1.33125,1.519375 C1.2228125,1.485 1.1140625,1.46875 1.0078125,1.46875 C0.47,1.46875 0,1.885 0,2.4628125 L0,12.3771875 C0,12.771875 0.2259375,13.1459375 0.58875,13.2978125 C1.8009375,13.8065625 3.0140625,14 4.2265625,14 C8.075625,14 11.9246875,12.0515625 15.77375,12.0515625 C16.7390625,12.0515625 17.70375,12.1740625 18.6690625,12.4803125 C18.7775,12.5146875 18.88625,12.5309375 18.9925,12.5309375 C19.5303125,12.5309375 20.0003125,12.1146875 20.0003125,11.536875 L20.0003125,1.6228125 C20,1.2278125 19.7740625,0.8540625 19.41125,0.701875 Z M18.5,10.874375 C17.634375,10.6578125 16.73625,10.551875 15.7734375,10.551875 C13.6621875,10.551875 11.613125,11.0703125 9.631875,11.571875 C7.745625,12.0490625 5.9640625,12.5 4.2265625,12.5 C3.2384375,12.5 2.3428125,12.350625 1.5,12.044375 L1.5,3.125625 C2.365625,3.3421875 3.26375,3.448125 4.2265625,3.448125 C6.3378125,3.448125 8.3865625,2.9296875 10.3678125,2.428125 C12.2540625,1.9509375 14.035625,1.5 15.7734375,1.5 C16.761875,1.5 17.6575,1.649375 18.5,1.955625 L18.5,10.874375 L18.5,10.874375 Z" id="Shape"></path>
                        </g>
                    </g>
                </g>
            </g>
        </g>
    </g>
</svg>