<?xml version="1.0" encoding="UTF-8"?>
<svg width="16px" height="16px" viewBox="0 0 16 16" version="1.1" xmlns="http://www.w3.org/2000/svg" xmlns:xlink="http://www.w3.org/1999/xlink">
    <title>A092C2A8-3F64-457D-9DBC-B4C541BA67B1</title>
    <g id="Page-1" stroke="none" stroke-width="1" fill="none" fill-rule="evenodd">
        <g id="kontaktai" transform="translate(-160.000000, -349.000000)" fill="#002949" fill-rule="nonzero">
            <g id="Group-28" transform="translate(120.000000, 307.000000)">
                <g id="Group-4" transform="translate(40.000000, 41.000000)">
                    <g id="phone" transform="translate(0.000000, 1.000000)">
                        <path d="M14.8921891,0.715139973 L11.9484435,0.0370159808 C11.2734445,-0.119233787 10.5859456,0.230765693 10.314071,0.868264745 L8.95469798,4.04013503 C8.70469835,4.62138417 8.8734481,5.30888314 9.36407237,5.70888255 L10.6140705,6.73075603 C9.72032184,8.36825359 8.37032385,9.71825159 6.73282628,10.6088753 L5.7109528,9.35887712 C5.31095339,8.86825285 4.62345442,8.6995031 4.04220528,8.94950273 L0.86721,10.3088757 C0.229710948,10.5807503 -0.117163537,11.2682493 0.0359612357,11.9432483 L0.714085228,14.8869939 C0.864085005,15.5401179 1.43908415,15.9963684 2.10783316,15.9963684 C9.76094678,15.9994922 16.0015625,9.80262646 16.0015625,2.1088879 C16.0015625,1.44013889 15.5453132,0.86513975 14.8921891,0.715139973 Z M2.16720807,14.4994945 L1.51408404,11.6651237 L4.58282948,10.3495006 L6.32345189,12.4776225 C9.4109473,11.0276246 11.0296949,9.41512704 12.4796927,6.32138164 L10.3515709,4.58075923 L11.6671939,1.51201379 L14.5015647,2.16513782 C14.4703148,8.96512771 8.96719796,14.4682445 2.16720807,14.4994945 Z" id="Shape"></path>
                    </g>
                </g>
            </g>
        </g>
    </g>
</svg>