<?xml version="1.0" encoding="UTF-8"?>
<svg width="12px" height="12px" viewBox="0 0 12 12" version="1.1" xmlns="http://www.w3.org/2000/svg" xmlns:xlink="http://www.w3.org/1999/xlink">
    <title>81675973-A8AF-4DA3-8378-32C62AC9804F</title>
    <g id="Page-1" stroke="none" stroke-width="1" fill="none" fill-rule="evenodd">
        <g id="el-parduotuve" transform="translate(-988.000000, -466.000000)" fill="#F92507" fill-rule="nonzero">
            <g id="Group-26" transform="translate(425.000000, 307.000000)">
                <g id="Group-4" transform="translate(0.000000, 144.000000)">
                    <g id="Group-25" transform="translate(548.000000, 0.000000)">
                        <g id="plus" transform="translate(15.000000, 15.000000)">
                            <path d="M11.75,5.25 L6.75,5.25 L6.75,0.25 C6.75,0.111875 6.638125,0 6.5,0 L5.5,0 C5.361875,0 5.25,0.111875 5.25,0.25 L5.25,5.25 L0.25,5.25 C0.111875,5.25 0,5.361875 0,5.5 L0,6.5 C0,6.638125 0.111875,6.75 0.25,6.75 L5.25,6.75 L5.25,11.75 C5.25,11.888125 5.361875,12 5.5,12 L6.5,12 C6.638125,12 6.75,11.888125 6.75,11.75 L6.75,6.75 L11.75,6.75 C11.888125,6.75 12,6.638125 12,6.5 L12,5.5 C12,5.361875 11.888125,5.25 11.75,5.25 Z" id="Path"></path>
                        </g>
                    </g>
                </g>
            </g>
        </g>
    </g>
</svg>