<?xml version="1.0" encoding="UTF-8"?>
<svg width="36px" height="26px" viewBox="0 0 36 26" version="1.1" xmlns="http://www.w3.org/2000/svg" xmlns:xlink="http://www.w3.org/1999/xlink">
    <title>2C3156E9-607E-441A-9B0C-3430B554736A</title>
    <g id="Page-1" stroke="none" stroke-width="1" fill="none" fill-rule="evenodd" opacity="0.2">
        <g id="mokymai" transform="translate(-150.000000, -1985.000000)" fill="#002949">
            <g id="Group-23" transform="translate(0.000000, 1758.000000)">
                <g id="Group-20" transform="translate(120.000000, 187.000000)">
                    <g id="quote" transform="translate(30.000000, 40.000000)">
                        <path d="M0,16.7790698 C0,14.1085271 0.949407966,11.2679264 2.8482239,8.25726744 C4.74703983,5.24660853 8.17653391,2.49418605 13.1367061,0 L14.0667384,1.7005814 C11.5866523,3.41375969 9.75242196,4.8498062 8.56404736,6.00872093 C6.4714747,8.0998062 5.42518837,10.1027132 5.42518837,12.0174419 C5.42518837,12.6724806 5.6189451,13.1007752 6.00645856,13.3023256 C6.39397201,13.5290698 6.72981701,13.6424419 7.01399354,13.6424419 C7.99569429,13.5164729 8.64155005,13.4534884 8.95156082,13.4534884 C10.6049516,13.4534884 11.9612487,14.0392442 13.0204521,15.2107558 C14.0796555,16.3822674 14.6092573,17.7994186 14.6092573,19.4622093 C14.6092573,21.3265504 14.0279871,22.8822674 12.8654467,24.1293605 C11.7029064,25.3764535 10.1011841,26 8.06027987,26 C5.65769645,26 3.71367061,25.1623062 2.22820237,23.4869186 C0.742734123,21.811531 0,19.5755814 0,16.7790698 Z M21.3907427,16.7790698 C21.3907427,13.9573643 22.3982777,11.0474806 24.4133477,8.0494186 C26.4284177,5.05135659 29.7997847,2.36821705 34.5274489,0 L35.4574812,1.7005814 C33.1324004,3.2877907 31.3498385,4.68604651 30.1097955,5.89534884 C27.9138859,8.03682171 26.8159311,10.0271318 26.8159311,11.8662791 C26.8159311,12.3953488 26.9580194,12.8236434 27.2421959,13.1511628 C27.5263724,13.4786822 27.9138859,13.6424419 28.4047363,13.6424419 C29.386437,13.5164729 30.0322928,13.4534884 30.3423036,13.4534884 C31.9698601,13.4534884 33.3196986,14.0329457 34.3918192,15.1918605 C35.4639397,16.3507752 36,17.7742248 36,19.4622093 C36,21.4273256 35.4058127,23.0082364 34.2174381,24.2049419 C33.0290635,25.4016473 31.4144241,26 29.3735199,26 C27.0484392,26 25.1367061,25.1623062 23.6383208,23.4869186 C22.1399354,21.811531 21.3907427,19.5755814 21.3907427,16.7790698 Z" id="“"></path>
                    </g>
                </g>
            </g>
        </g>
    </g>
</svg>