<?xml version="1.0" encoding="UTF-8"?>
<svg width="16px" height="16px" viewBox="0 0 16 16" version="1.1" xmlns="http://www.w3.org/2000/svg" xmlns:xlink="http://www.w3.org/1999/xlink">
    <title>DB10F30F-6664-4B9A-98D7-1725D9FD0593</title>
    <g id="Page-1" stroke="none" stroke-width="1" fill="none" fill-rule="evenodd">
        <g id="landing" transform="translate(-750.000000, -2258.000000)" fill="#2C3C4E" fill-rule="nonzero">
            <g id="Group-11" transform="translate(120.000000, 2007.000000)">
                <g id="Group-22" transform="translate(610.000000, 35.000000)">
                    <g id="Group-5" transform="translate(0.000000, 196.000000)">
                        <g id="search" transform="translate(20.000000, 20.000000)">
                            <path d="M15.8898491,15.0492652 L11.858796,11.018212 C11.7869245,10.9463405 11.693179,10.9088423 11.5931839,10.9088423 L11.2713246,10.9088423 C12.3431473,9.74952395 12.9993653,8.20272448 12.9993653,6.49968263 C12.9993653,2.90923295 10.0901323,0 6.49968263,0 C2.90923295,0 0,2.90923295 0,6.49968263 C0,10.0901323 2.90923295,12.9993653 6.49968263,12.9993653 C8.20272448,12.9993653 9.74952395,12.3431473 10.9088423,11.2744495 L10.9088423,11.5931839 C10.9088423,11.693179 10.9494654,11.7869245 11.018212,11.858796 L15.0492652,15.8898491 C15.196133,16.036717 15.4336214,16.036717 15.5804892,15.8898491 L15.8898491,15.5804892 C16.036717,15.4336214 16.036717,15.196133 15.8898491,15.0492652 Z M6.49968263,11.9994141 C3.45920609,11.9994141 0.999951174,9.54015917 0.999951174,6.49968263 C0.999951174,3.45920609 3.45920609,0.999951174 6.49968263,0.999951174 C9.54015917,0.999951174 11.9994141,3.45920609 11.9994141,6.49968263 C11.9994141,9.54015917 9.54015917,11.9994141 6.49968263,11.9994141 Z" id="Shape"></path>
                        </g>
                    </g>
                </g>
            </g>
        </g>
    </g>
</svg>