<?xml version="1.0" encoding="UTF-8"?>
<svg width="27px" height="24px" viewBox="0 0 27 24" version="1.1" xmlns="http://www.w3.org/2000/svg" xmlns:xlink="http://www.w3.org/1999/xlink">
    <title>4B3315EC-4F8F-4EDE-8382-52D003124ABD</title>
    <g id="Desktop-v2" stroke="none" stroke-width="1" fill="none" fill-rule="evenodd">
        <g id="landing" transform="translate(-1054.000000, -56.000000)" fill="#333333" fill-rule="nonzero">
            <g id="Group-34" transform="translate(20.000000, 20.000000)">
                <g id="Group-17" transform="translate(30.000000, 20.000000)">
                    <g id="shopping-cart" transform="translate(1004.000000, 16.000000)">
                        <path d="M25.874536,3 L6.05999014,3 L5.6695689,0.917670382 C5.56977219,0.385593123 5.10519482,0 4.56383632,0 L0.562499085,0 C0.251858965,0 0,0.251858965 0,0.562499085 L0,0.937498474 C0,1.24813859 0.251858965,1.5 0.562499085,1.5 L4.25249308,1.5 L7.53031587,18.9818129 C7.04553541,19.514687 6.74998902,20.2227796 6.74998902,20.9999658 C6.74998902,22.6568069 8.09314308,23.9999609 9.74998413,23.9999609 C11.4068252,23.9999609 12.7499793,22.6568069 12.7499793,20.9999658 C12.7505635,20.4732269 12.6117565,19.9557126 12.3476518,19.4999683 L19.1523438,19.4999683 C18.8882392,19.9557126 18.7494321,20.4732269 18.7500164,20.9999658 C18.7500164,22.6568069 20.0931704,23.9999609 21.7500115,23.9999609 C23.4068525,23.9999609 24.7500066,22.6568069 24.7500066,20.9999658 C24.7500066,20.1565453 24.4014915,19.3949684 23.8411956,18.8499068 C23.7197427,18.3698607 23.2855871,17.9999707 22.749713,17.9999707 L8.87248556,17.9999707 L8.30998648,14.9999756 L23.8434456,14.9999756 C24.3763197,14.9999756 24.8361158,14.6261012 24.9448188,14.1044302 L26.9759561,4.35444604 C27.1214559,3.65582218 26.5881599,3 25.874536,3 Z M11.2499866,20.9999683 C11.2499866,21.8270739 10.5770922,22.4999683 9.74998658,22.4999683 C8.92287611,22.4999683 8.24998658,21.8270739 8.24998658,20.9999683 C8.24998658,20.1728578 8.92287611,19.4999683 9.74998658,19.4999683 C10.5770922,19.4999683 11.2499866,20.1728578 11.2499866,20.9999683 Z M21.749967,22.4999683 C20.9228566,22.4999683 20.249967,21.8270739 20.249967,20.9999683 C20.249967,20.1728578 20.9228566,19.4999683 21.749967,19.4999683 C22.5770726,19.4999683 23.249967,20.1728578 23.249967,20.9999683 C23.249967,21.8270739 22.5770726,22.4999683 21.749967,22.4999683 Z M23.5385242,13.499978 L8.02873694,13.499978 L6.34123968,4.49999268 L25.4135211,4.49999268 L23.5385242,13.499978 Z" id="Shape"></path>
                    </g>
                </g>
            </g>
        </g>
    </g>
</svg>