<?xml version="1.0" encoding="UTF-8"?>
<svg width="26px" height="32px" viewBox="0 0 26 32" version="1.1" xmlns="http://www.w3.org/2000/svg" xmlns:xlink="http://www.w3.org/1999/xlink">
    <title>FD8B04F4-1D52-49A8-BAC3-9044614D4C91</title>
    <g id="Page-1" stroke="none" stroke-width="1" fill="none" fill-rule="evenodd">
        <g id="landing" transform="translate(-120.000000, -3347.000000)" fill="#F92507" fill-rule="nonzero">
            <g id="Group-29" transform="translate(120.000000, 3193.000000)">
                <g id="stopwatch" transform="translate(0.000000, 154.000000)">
                    <path d="M23.61875,11.5 L25.03125,10.0875 C25.325,9.79375 25.325,9.31875 25.03125,9.025 L23.96875,7.9625 C23.675,7.66875 23.2,7.66875 22.90625,7.9625 L21.6125,9.25625 C19.66875,7.5375 17.2125,6.3875 14.5,6.08125 L14.5,3 L16.25,3 C16.6625,3 17,2.6625 17,2.25 L17,0.75 C17,0.3375 16.6625,0 16.25,0 L9.75,0 C9.3375,0 9,0.3375 9,0.75 L9,2.25 C9,2.6625 9.3375,3 9.75,3 L11.5,3 L11.5,6.0875 C5.025,6.83125 0,12.325 0,19 C0,26.18125 5.81875,32 13,32 C20.18125,32 26,26.18125 26,19 C26,16.20625 25.11875,13.61875 23.61875,11.5 Z M13,29 C7.475,29 3,24.525 3,19 C3,13.475 7.475,9 13,9 C18.525,9 23,13.475 23,19 C23,24.525 18.525,29 13,29 Z M13.75,22 L12.25,22 C11.8375,22 11.5,21.6625 11.5,21.25 L11.5,12.75 C11.5,12.3375 11.8375,12 12.25,12 L13.75,12 C14.1625,12 14.5,12.3375 14.5,12.75 L14.5,21.25 C14.5,21.6625 14.1625,22 13.75,22 Z" id="Shape"></path>
                </g>
            </g>
        </g>
    </g>
</svg>